<?xml version="1.0" encoding="UTF-8"?>
<svg version="1.1" xmlns="http://www.w3.org/2000/svg" width="513" height="486">
<path d="M0 0 C0.8336911 0.37943253 1.6673822 0.75886505 2.52633667 1.14979553 C5.24127123 2.38881543 7.94869394 3.64338639 10.65625 4.8984375 C12.55511536 5.7688275 14.4543712 6.63836609 16.35400391 7.50708008 C28.08623903 12.88349784 39.77431783 18.35429713 51.44436646 23.86419678 C70.06519472 32.65249976 88.9113008 40.95337574 107.79296875 49.1640625 C120.23782763 54.58174241 132.54780455 60.23916775 144.81488037 66.04510498 C155.80762027 71.24732313 166.83419798 76.36713494 177.90625 81.3984375 C178.577771 81.70422729 179.24929199 82.01001709 179.94116211 82.32507324 C187.94281411 85.96654066 195.97912931 89.50503317 204.06689453 92.95166016 C207.80852285 94.55251172 211.52029403 96.20012584 215.21875 97.8984375 C215.82912109 98.17171875 216.43949219 98.445 217.06835938 98.7265625 C221.58923397 100.8138703 225.66883236 103.00411451 228.44921875 107.24609375 C230.05324618 111.84548731 229.84943414 116.63168559 227.96875 121.0859375 C224.50466425 125.26673064 220.43735451 127.81765506 215.5703125 130.12109375 C214.48685547 130.63800781 213.40339844 131.15492188 212.28710938 131.6875 C211.13017578 132.23148438 209.97324219 132.77546875 208.78125 133.3359375 C207.56284663 133.91472419 206.34475177 134.49416075 205.12695312 135.07421875 C202.65162481 136.25218338 200.17471278 137.42670687 197.69628906 138.59814453 C192.67541706 140.97422892 187.66588639 143.37378174 182.65625 145.7734375 C180.78653134 146.66812133 178.91673858 147.56265033 177.046875 148.45703125 C176.09876953 148.91062012 175.15066406 149.36420898 174.17382812 149.83154297 C172.06381677 150.83977331 169.95307962 151.8464855 167.84179688 152.85205078 C151.24267594 160.73818836 151.24267594 160.73818836 134.90625 169.1484375 C122.14687841 175.99029609 109.03786078 182.14639909 95.98278809 188.39855957 C93.25090623 189.70708041 90.52011781 191.0178801 87.7890625 192.328125 C80.40210916 195.86786055 73.01289886 199.40217219 65.6015625 202.890625 C57.91080195 206.51697329 50.24766343 210.1387265 42.78125 214.2109375 C33.72234179 219.15170136 24.37740768 223.49997007 15.04980469 227.90527344 C12.24136837 229.23319085 9.43653284 230.56840862 6.6328125 231.90625 C4.93235223 232.71627299 3.23183439 233.52617512 1.53125 234.3359375 C0.75620117 234.70581787 -0.01884766 235.07569824 -0.81738281 235.45678711 C-2.22419329 236.12428513 -3.6341254 236.78526502 -5.04785156 237.43798828 C-6.52221189 238.12385846 -7.9787954 238.84781848 -9.4296875 239.58203125 C-19.13693626 242.36226269 -31.17504457 234.15838369 -39.640625 229.8984375 C-41.05134867 229.19001833 -42.46207477 228.48160399 -43.87280273 227.77319336 C-44.65557587 227.37945526 -45.438349 226.98571716 -46.24484253 226.58004761 C-54.85113495 222.25320304 -63.46553318 217.94246168 -72.07836914 213.62866211 C-74.45872924 212.43624862 -76.8384939 211.24266808 -79.21801758 210.04858398 C-92.70255226 203.2826139 -106.20910707 196.59094829 -119.87442017 190.19717407 C-124.69005646 187.93834506 -129.48343333 185.63229965 -134.28125 183.3359375 C-135.25900391 182.86865234 -136.23675781 182.40136719 -137.24414062 181.91992188 C-144.66307296 178.37085129 -144.66307296 178.37085129 -146.94165039 177.14233398 C-149.62884077 175.91480086 -151.93201924 176.07932212 -154.84375 176.2734375 C-156.39598521 177.82567271 -155.97795272 179.29928186 -155.98851013 181.46014404 C-155.99540863 182.36302155 -156.00230713 183.26589905 -156.00941467 184.19613647 C-156.01202805 185.19456573 -156.01464142 186.192995 -156.01733398 187.22167969 C-156.0273645 188.78992996 -156.0273645 188.78992996 -156.03759766 190.38986206 C-156.05168637 192.66906297 -156.06356811 194.9482783 -156.07354546 197.22750092 C-156.08990193 200.83313709 -156.11313845 204.4386667 -156.13844299 208.04425049 C-156.2093598 218.29897788 -156.2693227 228.55374956 -156.32055664 238.80859375 C-156.35233918 245.07324628 -156.39361733 251.33777816 -156.44075203 257.60233307 C-156.45678152 259.9929309 -156.46909869 262.38355657 -156.47765923 264.77419281 C-156.48980551 268.11879219 -156.51395422 271.46310788 -156.54077148 274.80761719 C-156.54136063 275.79794952 -156.54194977 276.78828186 -156.54255676 277.80862427 C-156.63454699 286.46171123 -156.63454699 286.46171123 -158.84375 290.2734375 C-162.18333018 291.94322759 -164.14196765 291.88028707 -167.84375 291.2734375 C-175.63059867 284.83923391 -180.14795217 273.05834461 -184.84375 264.2734375 C-191.6381992 264.8284518 -196.65124088 267.41303038 -202.61523438 270.56640625 C-207.08855406 272.81313207 -209.83109157 273.85837791 -214.84375 272.2734375 C-216.59375 271.0859375 -216.59375 271.0859375 -217.84375 269.2734375 C-218.01994873 268.34402344 -218.19614746 267.41460937 -218.37768555 266.45703125 C-220.55616681 261.72640749 -223.95339981 260.63091624 -228.55078125 258.5234375 C-229.42715744 258.10223633 -230.30353363 257.68103516 -231.20646667 257.24707031 C-234.01432733 255.9031998 -236.83466215 254.58820249 -239.65625 253.2734375 C-241.51325321 252.38987515 -243.36938384 251.50447639 -245.22460938 250.6171875 C-254.72688451 246.08753272 -264.28566534 241.68486119 -273.84375 237.2734375 C-273.84375 203.6134375 -273.84375 169.9534375 -273.84375 135.2734375 C-254.64683506 142.95220348 -236.27361282 151.940534 -217.84375 161.2734375 C-218.17375 155.0034375 -218.50375 148.7334375 -218.84375 142.2734375 C-227.00732196 138.16864258 -235.177219 134.08848587 -243.4140625 130.1328125 C-244.11859558 129.79399048 -244.82312866 129.45516846 -245.54901123 129.1060791 C-248.42167408 127.72521351 -251.29477733 126.34533043 -254.17089844 124.97167969 C-256.31643661 123.94613343 -258.45917849 122.91492827 -260.6015625 121.8828125 C-261.24223663 121.57857361 -261.88291077 121.27433472 -262.54299927 120.96087646 C-266.56802684 119.01506793 -270.18668523 116.82083512 -273.84375 114.2734375 C-272.84375 111.2734375 -272.84375 111.2734375 -270.09423828 109.68286133 C-268.87259569 109.10453628 -267.64538563 108.53788585 -266.4140625 107.98046875 C-265.75697296 107.67355606 -265.09988342 107.36664337 -264.42288208 107.0504303 C-262.27625001 106.05163499 -260.12286015 105.06848799 -257.96875 104.0859375 C-256.48380074 103.39978937 -254.99910084 102.71310132 -253.51464844 102.02587891 C-245.38650225 98.27736441 -237.21842921 94.65704183 -228.93481445 91.26416016 C-218.21645608 86.839139 -207.76958401 81.78392267 -197.26855469 76.87109375 C-190.34350339 73.64058793 -183.39190383 70.4682391 -176.44140625 67.29296875 C-172.14711046 65.33091404 -167.85790006 63.35820922 -163.57180786 61.37832642 C-149.11553973 54.70275121 -134.69141465 48.05115108 -119.89257812 42.16064453 C-113.72068046 39.68874885 -107.83091577 36.87605541 -101.9296875 33.8203125 C-98.05011247 31.87561413 -94.07177254 30.26898172 -90.04980469 28.64599609 C-86.81054534 27.2592221 -83.70471878 25.71832306 -80.5703125 24.109375 C-72.25588075 19.8979367 -63.74967504 16.14621198 -55.21875 12.3984375 C-52.03328782 10.99737654 -48.8483599 9.59511253 -45.6640625 8.19140625 C-44.89380737 7.85216629 -44.12355225 7.51292633 -43.32995605 7.16340637 C-38.96836965 5.2355826 -34.63915742 3.25513997 -30.3359375 1.19921875 C-29.42666504 0.76915527 -28.51739258 0.3390918 -27.58056641 -0.10400391 C-25.98915909 -0.86236745 -24.4046421 -1.63547409 -22.82958984 -2.42724609 C-22.13816895 -2.75418457 -21.44674805 -3.08112305 -20.734375 -3.41796875 C-20.16750977 -3.69842041 -19.60064453 -3.97887207 -19.01660156 -4.26782227 C-12.18334135 -5.71048473 -6.04425744 -2.82667176 0 0 Z " fill="#185E9F" transform="translate(273.84375,4.7265625)"/>
<path d="M0 0 C1.43494355 0.46866227 2.8690662 0.93983844 4.30284119 1.4120636 C5.50091353 1.80523506 5.50091353 1.80523506 6.72318935 2.20634937 C9.60565653 3.21111975 12.28393682 4.4727613 15.00390625 5.85546875 C16.06569092 6.39123535 17.12747559 6.92700195 18.22143555 7.47900391 C19.32398682 8.04280762 20.42653809 8.60661133 21.5625 9.1875 C23.29657104 10.06414307 23.29657104 10.06414307 25.06567383 10.95849609 C28.37961046 12.63413154 31.69003831 14.31653048 35 16 C46.91898933 22.03249787 58.94185427 27.83034246 71.00341797 33.57226562 C75.88035918 35.8959052 80.75237905 38.22981839 85.625 40.5625 C91.26287258 43.26120638 96.90244043 45.95607268 102.55078125 48.6328125 C126.95777304 60.20198999 126.95777304 60.20198999 138.2265625 66.26171875 C147.27481258 71.12199553 156.41423544 75.65243876 165.75 79.9375 C177.19448941 85.19387961 188.55353726 90.60856824 199.875 96.125 C200.68770355 96.5200473 201.5004071 96.9150946 202.33773804 97.32211304 C211.85008344 101.94844221 221.31687962 106.65228298 230.73046875 111.4765625 C232.47986417 112.36855495 234.22937428 113.26032249 235.97900391 114.15185547 C239.30981432 115.84932352 242.62887715 117.56733955 245.94287109 119.29736328 C247.45239347 120.06882881 248.96230131 120.83954073 250.47265625 121.609375 C251.48721138 122.15001083 251.48721138 122.15001083 252.52226257 122.7015686 C256.89862086 124.90275891 259.29437236 125.12076542 264 124 C266.8186364 122.87307394 266.8186364 122.87307394 269.64038086 121.39892578 C270.72689438 120.85390411 271.8134079 120.30888245 272.93284607 119.74734497 C274.68118492 118.8553389 274.68118492 118.8553389 276.46484375 117.9453125 C277.70115635 117.32213848 278.93786411 116.69974788 280.17494202 116.07809448 C283.43946858 114.43537499 286.69927279 112.78350435 289.95794678 111.12921143 C295.72576433 108.20324398 301.5019801 105.29384775 307.27734375 102.3828125 C308.21797102 101.90827668 308.21797102 101.90827668 309.17760086 101.42415428 C325.04259298 93.42399508 341.03642441 85.70698794 357.25 78.4375 C366.06398191 74.43987814 374.64453258 70.13430054 383.171875 65.5625 C388.69076498 62.61107351 394.2780343 59.79986436 399.875 57 C400.80908691 56.53078125 401.74317383 56.0615625 402.70556641 55.578125 C403.58390137 55.13984375 404.46223633 54.7015625 405.3671875 54.25 C406.14175293 53.86328125 406.91631836 53.4765625 407.71435547 53.078125 C408.46861816 52.72234375 409.22288086 52.3665625 410 52 C411.16426514 51.40445313 411.16426514 51.40445313 412.35205078 50.796875 C417.99171389 49.09967231 422.92247346 51.14662842 428.0078125 53.6328125 C429.14516846 54.18445068 430.28252441 54.73608887 431.4543457 55.30444336 C432.67806742 55.91095212 433.90161439 56.51781357 435.125 57.125 C436.40494205 57.75124365 437.68513888 58.37696682 438.96557617 59.00219727 C448.77998752 63.81522459 458.48145903 68.84204815 468.16732788 73.90753174 C476.1745955 78.09236435 484.21102344 82.01098383 492.5390625 85.515625 C496.35579289 87.1525974 500.08969844 88.91143702 503.8125 90.75 C504.93269531 91.30171875 506.05289062 91.8534375 507.20703125 92.421875 C509.63097852 93.79148996 511.30995421 94.81389981 513 97 C513.5 99.9375 513.5 99.9375 513 103 C509.49929891 106.2742232 505.59770357 108.38220382 501.3125 110.4375 C499.88899762 111.1334496 498.46584653 111.83011802 497.04296875 112.52734375 C496.25067871 112.91390137 495.45838867 113.30045898 494.64208984 113.69873047 C491.68458056 115.15534888 488.74218424 116.64003687 485.80078125 118.12890625 C484.70016357 118.68457275 483.5995459 119.24023926 482.46557617 119.81274414 C480.3146604 120.89912716 478.16498169 121.98796469 476.0168457 123.07983398 C470.77472286 125.71661728 465.50829889 128.23870961 460.1269989 130.57563782 C446.90667146 136.319987 434.08286259 142.86202624 421.21807861 149.35144043 C415.58168555 152.19409906 409.94222426 155.03065897 404.30078125 157.86328125 C403.69087971 158.16955256 403.08097816 158.47582386 402.45259476 158.79137611 C387.06079651 166.51434438 371.53852773 173.95031207 355.88696289 181.1315918 C342.78170732 187.15190418 329.92720568 193.559207 317.14379883 200.23339844 C308.47764871 204.75331983 299.74561515 209.09033436 290.8984375 213.24829102 C286.51588788 215.30934014 282.16639935 217.4061826 277.8671875 219.63671875 C276.64769409 220.26622437 276.64769409 220.26622437 275.40356445 220.90844727 C273.9069906 221.68615375 272.41536343 222.47350376 270.93041992 223.27319336 C266.48184323 225.57892695 262.11004619 227.53652938 257 227 C252.98724084 225.65034039 249.31416704 223.76121986 245.5625 221.8125 C243.29456761 220.67779206 241.02633092 219.54369213 238.7578125 218.41015625 C237.61602539 217.83152832 236.47423828 217.25290039 235.29785156 216.65673828 C231.47752108 214.73752281 227.62209282 212.90389299 223.75537109 211.08056641 C214.30156362 206.61658696 204.93736505 201.98203983 195.59375 197.29296875 C194.56278702 196.7758432 193.53182404 196.25871765 192.46961975 195.72592163 C187.27907633 193.12101406 182.0914657 190.51048275 176.90795898 187.89160156 C167.17921474 182.99075021 157.41786583 178.2274127 147.48828125 173.74609375 C138.09627956 169.50000814 128.84965122 165.00828756 119.640625 160.3828125 C118.97480471 160.04846506 118.30898441 159.71411762 117.62298775 159.36963844 C112.14228789 156.61534697 106.66685165 153.8506499 101.19165039 151.08544922 C82.94548919 141.87236319 64.63324324 132.91073865 46.04827881 124.39746094 C39.45135283 121.37314888 32.87127757 118.31462044 26.31860352 115.19555664 C24.8636664 114.50734088 23.40514354 113.82666777 21.94360352 113.15258789 C4.56167699 105.12335399 4.56167699 105.12335399 0 96 C-0.09350611 92.97911536 -0.12572242 89.98141878 -0.11352539 86.96044922 C-0.11367142 86.02381439 -0.11381744 85.08717957 -0.1139679 84.12216187 C-0.11326944 81.01631378 -0.10548015 77.91052515 -0.09765625 74.8046875 C-0.09579183 72.65520256 -0.09436804 70.5057172 -0.09336853 68.35623169 C-0.08954522 62.69104851 -0.07971651 57.02589085 -0.06866455 51.36071777 C-0.05844644 45.58292994 -0.05387005 39.805138 -0.04882812 34.02734375 C-0.03809409 22.6848846 -0.02101989 11.34244442 0 0 Z " fill="#6DB7F1" transform="translate(0,259)"/>
<path d="M0 0 C1.14186768 0.53359131 2.28373535 1.06718262 3.46020508 1.61694336 C12.40015936 5.83587415 21.17563394 10.3378198 29.91723633 14.95092773 C36.93652159 18.64660166 44.01914434 22.16536671 51.1875 25.5625 C52.60252808 26.23345703 52.60252808 26.23345703 54.04614258 26.91796875 C55.86970903 27.78207546 57.69335551 28.6460133 59.51708984 29.50976562 C63.52537908 31.4159732 67.51865618 33.350685 71.5 35.3125 C72.16652588 35.63516846 72.83305176 35.95783691 73.51977539 36.2902832 C78.00879823 38.51759646 78.00879823 38.51759646 79.125 40.75 C79.75 43.5 79.75 43.5 79.125 46.75 C73.08193989 52.2419237 64.94162401 55.44049367 57.63015747 58.89709473 C53.98315424 60.62195667 50.34727024 62.36996918 46.7109375 64.1171875 C45.94050613 64.48690674 45.17007477 64.85662598 44.376297 65.23754883 C38.54810433 68.04291623 32.75563756 70.91524287 26.9765625 73.8203125 C26.11996536 74.2507486 25.26336823 74.68118469 24.3808136 75.12466431 C21.01844574 76.81596709 17.6568894 78.50879513 14.29953003 80.21002197 C4.64703124 85.10056762 -5.07031589 89.78388498 -14.91796875 94.26953125 C-25.30183801 99.01210639 -35.54130149 103.99947181 -45.7421875 109.12109375 C-46.47313944 109.48800701 -47.20409138 109.85492027 -47.95719337 110.23295212 C-53.98122869 113.25891971 -59.99998238 116.29533926 -66.01855469 119.33215332 C-71.25733678 121.97497716 -76.49803833 124.61393417 -81.7421875 127.24609375 C-82.47115297 127.61198294 -83.20011845 127.97787212 -83.95117378 128.35484886 C-97.18929453 134.98929859 -110.56475954 141.27525041 -124.02783203 147.44015503 C-130.11620302 150.24112153 -136.1547788 153.14390216 -142.1875 156.0625 C-142.78234192 156.34861145 -143.37718384 156.6347229 -143.99005127 156.92950439 C-152.13102834 160.84597444 -160.13712329 164.91620999 -167.9296875 169.4921875 C-172.08982919 171.26879973 -175.65358979 171.56951782 -179.9798584 169.97348022 C-182.37924874 168.83813791 -184.71418817 167.61892963 -187.05078125 166.359375 C-187.93364304 165.89952209 -188.81650482 165.43966919 -189.72612 164.96588135 C-192.55381949 163.49060307 -195.3710744 161.99667233 -198.1875 160.5 C-201.8458277 158.56958731 -205.50877579 156.64825095 -209.17578125 154.734375 C-210.1152359 154.2437558 -211.05469055 153.7531366 -212.02261353 153.24765015 C-220.15847091 149.03882802 -228.44388742 145.20651839 -236.77851868 141.41061401 C-249.18894496 135.73710312 -261.38182645 129.64697906 -273.5760498 123.52642822 C-276.02727057 122.29815654 -278.48150347 121.07596448 -280.93567657 119.85360527 C-283.88613611 118.38283098 -286.83356663 116.90601586 -289.78125 115.4296875 C-290.8705481 114.88706268 -291.95984619 114.34443787 -293.08215332 113.78536987 C-294.07920288 113.28369293 -295.07625244 112.78201599 -296.10351562 112.26513672 C-296.97995728 111.8261203 -297.85639893 111.38710388 -298.75939941 110.93478394 C-300.875 109.75 -300.875 109.75 -302.875 107.75 C-303.12109566 105.95778465 -303.12109566 105.95778465 -303.11550903 103.75106812 C-303.11825836 102.91531754 -303.12100769 102.07956696 -303.12384033 101.2184906 C-303.11664978 100.29995804 -303.10945923 99.38142548 -303.10205078 98.43505859 C-303.10234283 97.46916306 -303.10263489 96.50326752 -303.10293579 95.50810242 C-303.10153872 92.30479045 -303.08595974 89.101709 -303.0703125 85.8984375 C-303.06658371 83.68169278 -303.06373611 81.46494642 -303.06173706 79.24819946 C-303.05409004 73.40543084 -303.03443237 67.56276118 -303.0123291 61.72003174 C-302.99189368 55.76128478 -302.98274028 49.80252188 -302.97265625 43.84375 C-302.95118749 32.14578978 -302.91703867 20.44790311 -302.875 8.75 C-299.1887066 7.57136522 -297.43099408 8.1307749 -293.95330811 9.87095642 C-293.32418518 10.20100174 -292.69506226 10.53104706 -292.046875 10.87109375 C-291.38020813 11.20867203 -290.71354126 11.54625031 -290.02667236 11.89405823 C-287.88687939 12.98072391 -285.75596395 14.0836375 -283.625 15.1875 C-282.2375464 15.89629373 -280.84952994 16.60398683 -279.4609375 17.31054688 C-276.66665819 18.73396717 -273.87523851 20.1627847 -271.08569336 21.59545898 C-260.56965738 26.98737951 -249.98361914 32.23430723 -239.3125 37.3125 C-237.96381836 37.95735352 -237.96381836 37.95735352 -236.58789062 38.61523438 C-231.94514655 40.83057044 -227.2921625 43.01958775 -222.62025452 45.17280579 C-216.42339893 48.03607701 -210.30017458 51.01600512 -204.21875 54.1171875 C-203.49273087 54.48647873 -202.76671173 54.85576996 -202.01869202 55.23625183 C-199.04458181 56.75030503 -196.07133535 58.26574609 -193.10546875 59.79589844 C-190.89781966 60.93308555 -188.68396523 62.05732646 -186.46875 63.1796875 C-185.80822632 63.52442108 -185.14770264 63.86915466 -184.46716309 64.22433472 C-179.52505228 66.70949198 -174.82928878 68.58905434 -169.33398438 67.02832031 C-168.16319336 66.43422363 -168.16319336 66.43422363 -166.96875 65.828125 C-165.62369385 65.1638147 -165.62369385 65.1638147 -164.25146484 64.48608398 C-162.82761475 63.75047241 -162.82761475 63.75047241 -161.375 63 C-159.31533671 61.9747931 -157.25543409 60.9500669 -155.1953125 59.92578125 C-154.14633789 59.39678223 -153.09736328 58.8677832 -152.01660156 58.32275391 C-147.1272885 55.8750577 -142.18839732 53.53410238 -137.25 51.1875 C-135.33838663 50.27245924 -133.42692758 49.35709601 -131.515625 48.44140625 C-127.80255336 46.66611786 -124.08378326 44.9037182 -120.359375 43.15234375 C-111.6039018 39.02811343 -102.95781956 34.79420018 -94.4387207 30.20117188 C-87.83360644 26.66782995 -81.08453207 23.46612012 -74.31274414 20.2668457 C-66.61830275 16.61820139 -59.00525897 12.82394348 -51.40246582 8.98956299 C-32.98132734 -0.28738049 -32.98132734 -0.28738049 -25.4375 -3.75 C-24.30441406 -4.2759375 -23.17132813 -4.801875 -22.00390625 -5.34375 C-14.02734592 -7.6540646 -7.08462386 -3.35520965 0 0 Z " fill="#AED7F7" transform="translate(433.875,196.25)"/>
<path d="M0 0 C1.13735596 0.55163818 2.27471191 1.10327637 3.4465332 1.67163086 C4.67025492 2.27813962 5.89380189 2.88500107 7.1171875 3.4921875 C8.39712955 4.11843115 9.67732638 4.74415432 10.95776367 5.36938477 C20.77217502 10.18241209 30.47364653 15.20923565 40.15951538 20.27471924 C48.166783 24.45955185 56.20321094 28.37817133 64.53125 31.8828125 C68.34798039 33.5197849 72.08188594 35.27862452 75.8046875 37.1171875 C76.92488281 37.66890625 78.04507813 38.220625 79.19921875 38.7890625 C81.62316602 40.15867746 83.30214171 41.18108731 84.9921875 43.3671875 C85.4921875 46.3046875 85.4921875 46.3046875 84.9921875 49.3671875 C81.49148641 52.6414107 77.58989107 54.74939132 73.3046875 56.8046875 C71.88118512 57.5006371 70.45803403 58.19730552 69.03515625 58.89453125 C68.24286621 59.28108887 67.45057617 59.66764648 66.63427734 60.06591797 C63.67676806 61.52253638 60.73437174 63.00722437 57.79296875 64.49609375 C56.69235107 65.05176025 55.5917334 65.60742676 54.45776367 66.17993164 C52.3068479 67.26631466 50.15716919 68.35515219 48.0090332 69.44702148 C42.76691036 72.08380478 37.50048639 74.60589711 32.1191864 76.94282532 C18.89885896 82.6871745 6.07505009 89.22921374 -6.78973389 95.71862793 C-12.42612695 98.56128656 -18.06558824 101.39784647 -23.70703125 104.23046875 C-24.31693279 104.53674006 -24.92683434 104.84301136 -25.55521774 105.15856361 C-40.94701599 112.88153188 -56.46928477 120.31749957 -72.12084961 127.4987793 C-85.22610518 133.51909168 -98.08060682 139.9263945 -110.86401367 146.60058594 C-119.53016379 151.12050733 -128.26219735 155.45752186 -137.109375 159.61547852 C-141.49192462 161.67652764 -145.84141315 163.7733701 -150.140625 166.00390625 C-151.36011841 166.63341187 -151.36011841 166.63341187 -152.60424805 167.27563477 C-154.1008219 168.05334125 -155.59244907 168.84069126 -157.07739258 169.64038086 C-161.78279016 172.07922681 -165.71419754 172.97682036 -171.0078125 173.3671875 C-170.6778125 172.3771875 -170.3478125 171.3871875 -170.0078125 170.3671875 C-169.3478125 170.3671875 -168.6878125 170.3671875 -168.0078125 170.3671875 C-168.0078125 138.0271875 -168.0078125 105.6871875 -168.0078125 72.3671875 C-158.2521875 67.4790625 -148.4965625 62.5909375 -138.4453125 57.5546875 C-135.41786865 56.03641357 -132.3904248 54.51813965 -129.27124023 52.95385742 C-109.91387355 43.2579972 -90.51616042 33.66350282 -70.7578125 24.8046875 C-61.94383059 20.80706564 -53.36327992 16.50148804 -44.8359375 11.9296875 C-39.31704752 8.97826101 -33.7297782 6.16705186 -28.1328125 3.3671875 C-27.19872559 2.89796875 -26.26463867 2.42875 -25.30224609 1.9453125 C-24.42391113 1.50703125 -23.54557617 1.06875 -22.640625 0.6171875 C-21.86605957 0.23046875 -21.09149414 -0.15625 -20.29345703 -0.5546875 C-19.53919434 -0.91046875 -18.78493164 -1.26625 -18.0078125 -1.6328125 C-17.23163574 -2.02984375 -16.45545898 -2.426875 -15.65576172 -2.8359375 C-10.01609861 -4.53314019 -5.08533904 -2.48618408 0 0 Z " fill="#AED7F7" transform="translate(428.0078125,312.6328125)"/>
<path d="M0 0 C4.28616554 0.48464962 7.66873975 2.16130601 11.48828125 4.09765625 C12.10365753 4.40748947 12.71903381 4.71732269 13.35305786 5.0365448 C15.34237805 6.03968687 17.32737229 7.05109084 19.3125 8.0625 C20.68791982 8.75745497 22.06365359 9.45178893 23.43969727 10.14550781 C26.12120714 11.49837287 28.80120845 12.85413808 31.47949219 14.21337891 C35.4612548 16.23408201 39.44592536 18.24875075 43.4375 20.25 C44.02370117 20.54390625 44.60990234 20.8378125 45.21386719 21.140625 C56.46822279 26.75261884 67.83632778 32.15310717 79.25158691 37.42912292 C88.44770801 41.68728562 97.50936972 46.19721828 106.5625 50.75 C108.08128421 51.51191014 109.60016408 52.27362963 111.11914062 53.03515625 C113.89194658 54.42558839 116.66420902 55.81709073 119.43579102 57.20996094 C122.62209186 58.81020464 125.81030422 60.40653639 129 62 C128.67 62.66 128.34 63.32 128 64 C127.87692886 67.08106328 127.81418925 70.14093958 127.79467773 73.22314453 C127.78477814 74.1792865 127.77487854 75.13542847 127.76467896 76.12054443 C127.7330088 79.29127499 127.70828473 82.46202054 127.68359375 85.6328125 C127.66302899 87.8271423 127.64203265 90.0214681 127.62062073 92.21578979 C127.56535073 97.99929568 127.51596321 103.78283761 127.46777344 109.56640625 C127.41759435 115.46487649 127.36188956 121.36329421 127.30664062 127.26171875 C127.19899879 138.841101 127.09756723 150.42052879 127 162 C119.56741397 161.10860018 119.56741397 161.10860018 116.0378418 159.2409668 C115.34148117 158.87935959 114.64512054 158.51775238 113.92765808 158.14518738 C112.82458061 157.55318291 112.82458061 157.55318291 111.69921875 156.94921875 C110.50810234 156.32814995 110.50810234 156.32814995 109.29292297 155.6945343 C106.75253697 154.36858806 104.21955267 153.02928186 101.6875 151.6875 C90.74201221 145.9096535 79.75199104 140.35058105 68.48828125 135.21484375 C54.93699411 129.03578567 41.60814697 122.45660892 28.2989502 115.77642822 C25.84772943 114.54815654 23.39349653 113.32596448 20.93932343 112.10360527 C17.98886389 110.63283098 15.04143337 109.15601586 12.09375 107.6796875 C11.0044519 107.13706268 9.91515381 106.59443787 8.79284668 106.03536987 C7.79579712 105.53369293 6.79874756 105.03201599 5.77148438 104.51513672 C4.89504272 104.0761203 4.01860107 103.63710388 3.11560059 103.18478394 C1 102 1 102 -1 100 C-1.19378066 96.8709859 -1.26210069 93.83074519 -1.24291992 90.70092773 C-1.24481827 89.73663849 -1.24671661 88.77234924 -1.24867249 87.77883911 C-1.25238777 84.5803422 -1.24166606 81.38207059 -1.23046875 78.18359375 C-1.22927736 75.96924364 -1.2288237 73.75489302 -1.2290802 71.5405426 C-1.22751408 66.89589279 -1.219214 62.25131991 -1.20581055 57.60668945 C-1.18881065 51.63860471 -1.18499641 45.67060455 -1.18575573 39.70249844 C-1.18548445 35.1293303 -1.18001024 30.55618082 -1.17275429 25.98301888 C-1.16956143 23.78167932 -1.16759878 21.58033764 -1.16686058 19.3789959 C-1.16470409 16.30918613 -1.15597519 13.23946798 -1.14526367 10.16967773 C-1.14571686 9.25069199 -1.14617004 8.33170624 -1.14663696 7.38487244 C-1.11447387 1.11447387 -1.11447387 1.11447387 0 0 Z " fill="#6DB7F1" transform="translate(132,204)"/>
<path d="M0 0 C19.19691494 7.67876598 37.57013718 16.6670965 56 26 C56 20.06 56 14.12 56 8 C56.33 8 56.66 8 57 8 C57.04669547 23.46384495 57.0819768 38.92768463 57.10362434 54.39158344 C57.11394229 61.57154508 57.12801249 68.75146294 57.15087891 75.93139648 C57.17079696 82.18853557 57.18371267 88.44564295 57.18817699 94.70281285 C57.19078707 98.01675216 57.1979767 101.33057948 57.21146011 104.64449501 C57.22590873 108.34158403 57.22798071 112.03848314 57.22705078 115.7355957 C57.23424133 116.83754776 57.24143188 117.93949982 57.24884033 119.07484436 C57.246091 120.08025269 57.24334167 121.08566101 57.24050903 122.12153625 C57.24235262 122.9963178 57.24419621 123.87109934 57.24609566 124.77238941 C57 127 57 127 55 130 C54.37241287 129.31905022 54.37241287 129.31905022 53.73214722 128.62434387 C51.96992466 126.97179645 50.45144039 126.05755841 48.28564453 125.01049805 C47.17771042 124.46929573 47.17771042 124.46929573 46.0473938 123.91716003 C44.85217606 123.3452166 44.85217606 123.3452166 43.6328125 122.76171875 C42.80224335 122.35846878 41.97167419 121.95521881 41.11593628 121.53974915 C38.45507301 120.24982373 35.79006923 118.96870914 33.125 117.6875 C31.36952804 116.83713254 29.61431687 115.98622651 27.859375 115.13476562 C18.61444381 110.659606 9.32807152 106.30526378 0 102 C0 68.34 0 34.68 0 0 Z " fill="#6CB7F1" transform="translate(0,140)"/>
<path d="M0 0 C4.44586529 0.47420517 8.12749499 2.36908186 12.05078125 4.37890625 C12.70958786 4.71043198 13.36839447 5.0419577 14.04716492 5.38352966 C16.13850906 6.43755842 18.22551046 7.4998795 20.3125 8.5625 C21.73474694 9.28115158 23.1572702 9.99925659 24.58007812 10.71679688 C28.0566167 12.47155215 31.5292863 14.23375364 35 16 C34.505 17.485 34.505 17.485 34 19 C30.04 17.02 26.08 15.04 22 13 C22 12.34 22 11.68 22 11 C20.824375 10.9071875 20.824375 10.9071875 19.625 10.8125 C14.64711207 9.6967665 10.47546306 7.39693773 6 5 C6 4.34 6 3.68 6 3 C4.35 2.67 2.7 2.34 1 2 C1.33 34.01 1.66 66.02 2 99 C9.66373616 102.83186808 17.29591554 106.59162844 25.10351562 110.09765625 C29.19970039 111.98470529 32.5812725 113.98937891 36 117 C30.80064346 116.48175472 26.91497196 115.26464165 22.26171875 112.91015625 C21.35145683 112.45327675 21.35145683 112.45327675 20.42280579 111.98716736 C19.15244979 111.34715232 17.88449282 110.70235478 16.61889648 110.05297852 C14.68033691 109.05882655 12.73458453 108.08006853 10.78710938 107.10351562 C1.31220642 102.31220642 1.31220642 102.31220642 -1 100 C-1.19378066 96.8709859 -1.26210069 93.83074519 -1.24291992 90.70092773 C-1.24481827 89.73663849 -1.24671661 88.77234924 -1.24867249 87.77883911 C-1.25238777 84.5803422 -1.24166606 81.38207059 -1.23046875 78.18359375 C-1.22927736 75.96924364 -1.2288237 73.75489302 -1.2290802 71.5405426 C-1.22751408 66.89589279 -1.219214 62.25131991 -1.20581055 57.60668945 C-1.18881065 51.63860471 -1.18499641 45.67060455 -1.18575573 39.70249844 C-1.18548445 35.1293303 -1.18001024 30.55618082 -1.17275429 25.98301888 C-1.16956143 23.78167932 -1.16759878 21.58033764 -1.16686058 19.3789959 C-1.16470409 16.30918613 -1.15597519 13.23946798 -1.14526367 10.16967773 C-1.14571686 9.25069199 -1.14617004 8.33170624 -1.14663696 7.38487244 C-1.11447387 1.11447387 -1.11447387 1.11447387 0 0 Z " fill="#7AA9CD" transform="translate(132,204)"/>
<path d="M0 0 C3.56553155 0.61123398 6.66981698 1.59781768 10 3 C10.99 3.33 11.98 3.66 13 4 C13.41636719 4.44085938 13.83273438 4.88171875 14.26171875 5.3359375 C16.76596457 7.73326047 19.7351082 9.1040273 22.8125 10.625 C23.41642578 10.93695313 24.02035156 11.24890625 24.64257812 11.5703125 C28.4186271 13.45630467 31.80926851 14.52509322 36 15 C36.33 14.34 36.66 13.68 37 13 C39.5 14.8125 39.5 14.8125 42 17 C42 17.99 42 18.98 42 20 C42.804375 20.2475 43.60875 20.495 44.4375 20.75 C48.74324143 22.26078647 52.85364007 24.10188856 57 26 C57 26.66 57 27.32 57 28 C58.98 28.33 60.96 28.66 63 29 C63 29.66 63 30.32 63 31 C64.02673828 31.14501953 64.02673828 31.14501953 65.07421875 31.29296875 C68.64541571 32.15596828 71.54690177 33.63109496 74.8125 35.3125 C75.43125 35.62646729 76.05 35.94043457 76.6875 36.26391602 C79.30365819 37.59359075 81.90348988 38.94741339 84.48046875 40.3515625 C88.5728832 42.55212578 91.37863789 43.22006486 96 43 C98 45 98 45 100 48 C101.010625 48.495 102.02125 48.99 103.0625 49.5 C106 51 106 51 107 54 C102.88190383 52.71109334 99.10481521 51.1708866 95.25537109 49.2253418 C94.14495453 48.66683029 93.03453796 48.10831879 91.89047241 47.53288269 C91.30281475 47.2349349 90.71515709 46.93698711 90.10969162 46.6300106 C88.2300049 45.67720289 86.34772657 44.72969389 84.4647522 43.78340149 C79.76912887 41.42232508 75.07770416 39.05295546 70.38659668 36.68292236 C52.45781867 27.62628312 34.46162709 18.81435483 16.19219971 10.46109009 C10.78847766 7.98777217 5.39475124 5.49281572 0 3 C0 2.01 0 1.02 0 0 Z " fill="#7EAED4" transform="translate(30,373)"/>
<path d="M0 0 C2.02045442 0.60183749 4.02111039 1.27306096 6 2 C7.53359431 5.06718861 7.65552102 6.59129069 7 10 C0.38668351 16.01802199 -8.67917095 19.40100694 -16.6875 23.1875 C-19.61544462 24.58273924 -22.54062582 25.98368748 -25.46484375 27.38671875 C-26.22644806 27.75171478 -26.98805237 28.11671082 -27.7727356 28.49276733 C-33.69997174 31.34531356 -39.57680658 34.29061532 -45.44140625 37.26953125 C-46.30388474 37.70645798 -47.16636322 38.1433847 -48.05497742 38.59355164 C-51.46169312 40.3199762 -54.86810511 42.04662193 -58.26473999 43.79281616 C-60.62529309 45.00600809 -62.99167581 46.20708001 -65.359375 47.40625 C-66.06006607 47.77107986 -66.76075714 48.13590973 -67.48268127 48.51179504 C-71.12684456 50.3438348 -73.89582217 51.45579957 -78 51 C-76.68 50.34 -75.36 49.68 -74 49 C-74 48.01 -74 47.02 -74 46 C-72.35 46 -70.7 46 -69 46 C-69 45.34 -69 44.68 -69 44 C-67.046875 43.57682292 -65.09375 43.15364583 -63.140625 42.73046875 C-60.94736411 42.10702753 -60.94736411 42.10702753 -59.21484375 40.6484375 C-55.56933838 37.93520423 -51.36782905 36.34307529 -47.22460938 34.51757812 C-43.4392967 33.03337465 -43.4392967 33.03337465 -41 30 C-38.90788949 29.04904068 -36.77501479 28.18659499 -34.625 27.375 C-33.46226562 26.92898438 -32.29953125 26.48296875 -31.1015625 26.0234375 C-28 25 -28 25 -25 25 C-25 24.34 -25 23.68 -25 23 C-13.42579251 16.39337176 -13.42579251 16.39337176 -8.6875 15.625 C-4.84223058 14.7307513 -1.35608766 13.07795147 2 11 C2.33 10.34 2.66 9.68 3 9 C3.66 9 4.32 9 5 9 C4.505 6.525 4.505 6.525 4 4 C3.34 4 2.68 4 2 4 C2 3.34 2 2.68 2 2 C1.34 2 0.68 2 0 2 C0 1.34 0 0.68 0 0 Z " fill="#B6CEE3" transform="translate(506,233)"/>
<path d="M0 0 C-3.30771214 2.69362642 -6.79027985 4.48280272 -10.625 6.3359375 C-11.60153282 6.8095018 -11.60153282 6.8095018 -12.59779358 7.29263306 C-14.72970424 8.32462573 -16.8647219 9.34999523 -19 10.375 C-20.48631591 11.09230462 -21.97256188 11.80975417 -23.45874023 12.52734375 C-34.10322441 17.65620842 -44.8021892 22.66089985 -55.53686523 27.59790039 C-62.59687362 30.85243362 -69.59368721 34.1990047 -76.47485352 37.81835938 C-79.22480461 39.24202912 -80.84643691 40 -84 40 C-84 39.34 -84 38.68 -84 38 C-83.01 38 -82.02 38 -81 38 C-80.67 36.68 -80.34 35.36 -80 34 C-79.195625 33.9175 -78.39125 33.835 -77.5625 33.75 C-73.01688476 32.79302837 -69.184757 30.97541324 -65 29 C-63.02268522 28.0793455 -61.04349463 27.16270957 -59.0625 26.25 C-58.14597656 25.82203125 -57.22945313 25.3940625 -56.28515625 24.953125 C-54 24 -54 24 -52 24 C-51.731875 23.38125 -51.46375 22.7625 -51.1875 22.125 C-50 20 -50 20 -47 18 C-45.78699219 17.79632813 -44.57398438 17.59265625 -43.32421875 17.3828125 C-34.88566499 15.63737596 -27.19966732 10.71111248 -19.63012695 6.72607422 C-17.51501119 5.61716932 -15.39272247 4.5230294 -13.26953125 3.4296875 C-12.30839165 2.91412796 -12.30839165 2.91412796 -11.32783508 2.38815308 C-7.37765147 0.35944203 -4.43095786 -0.37310645 0 0 Z " fill="#B4CDE3" transform="translate(402,417)"/>
<path d="M0 0 C-1 3 -1 3 -3.88208008 4.67895508 C-5.17294303 5.30283655 -6.46924552 5.91553435 -7.76953125 6.51953125 C-8.46986984 6.85511047 -9.17020844 7.1906897 -9.89176941 7.53643799 C-12.19439336 8.63771284 -14.50333149 9.7250241 -16.8125 10.8125 C-20.00842894 12.33453358 -23.20130202 13.8629374 -26.39453125 15.390625 C-27.6036467 15.96714561 -27.6036467 15.96714561 -28.83718872 16.55531311 C-34.07167231 19.05637178 -39.27300514 21.61494333 -44.44921875 24.234375 C-45.09776321 24.56221481 -45.74630768 24.89005463 -46.414505 25.22782898 C-49.46499419 26.7722409 -52.51115628 28.32448647 -55.55395508 29.8840332 C-56.6292749 30.42890381 -57.70459473 30.97377441 -58.8125 31.53515625 C-59.74707031 32.013479 -60.68164062 32.49180176 -61.64453125 32.98461914 C-64 34 -64 34 -67 34 C-67 33.34 -67 32.68 -67 32 C-65.87980469 31.45730469 -64.75960938 30.91460937 -63.60546875 30.35546875 C-62.13265508 29.63313338 -60.66000746 28.91045938 -59.1875 28.1875 C-58.44951172 27.83107422 -57.71152344 27.47464844 -56.95117188 27.10742188 C-56.23896484 26.75615234 -55.52675781 26.40488281 -54.79296875 26.04296875 C-53.81106567 25.56380005 -53.81106567 25.56380005 -52.80932617 25.07495117 C-50.88188099 23.9298235 -49.55543601 22.6011113 -48 21 C-46.125 20.2265625 -46.125 20.2265625 -44 19.625 C-38.47350445 17.90705977 -33.09525136 15.75689493 -28 13 C-27.67 12.34 -27.34 11.68 -27 11 C-23.9375 10.375 -23.9375 10.375 -21 10 C-21 9.34 -21 8.68 -21 8 C-17.535 7.505 -17.535 7.505 -14 7 C-13.67 6.01 -13.34 5.02 -13 4 C-11.2578125 3.33984375 -11.2578125 3.33984375 -9.125 2.9375 C-5.79954611 2.29327 -3.19846817 0 0 0 Z " fill="#B6CDE3" transform="translate(427,284)"/>
<path d="M0 0 C1.65 0 3.3 0 5 0 C1.52755519 2.8794674 -2.3227921 4.70826229 -6.38671875 6.58984375 C-7.11312057 6.9308461 -7.8395224 7.27184845 -8.5879364 7.6231842 C-10.95247678 8.73224393 -13.31988979 9.83501091 -15.6875 10.9375 C-18.9552947 12.46559778 -22.22184732 13.99633979 -25.48828125 15.52734375 C-26.30026978 15.9074057 -27.1122583 16.28746765 -27.94885254 16.67904663 C-32.89553828 18.99842039 -37.82258333 21.35358021 -42.73046875 23.75390625 C-44.43360229 24.58450562 -44.43360229 24.58450562 -46.17114258 25.43188477 C-48.25339309 26.45103397 -50.33283453 27.4759498 -52.40893555 28.50756836 C-56.94000561 30.71881898 -60.89299621 32.59007327 -66 33 C-63.23623319 29.5055822 -59.30888437 28.26038174 -55.3125 26.625 C-50.15293058 24.45218667 -45.39080694 22.21368845 -40.74609375 19.05859375 C-38.74946642 17.84811051 -36.76190761 17.08944364 -34.5625 16.3125 C-30.93328095 15.43712479 -30.93328095 15.43712479 -30 13 C-27.0274496 11.92970197 -24.01448138 11.07484357 -20.98046875 10.1953125 C-17.76656808 8.90638248 -16.38860359 7.43685821 -14 5 C-11.4921875 3.98828125 -11.4921875 3.98828125 -8.875 3.3125 C-5.34643616 2.39669364 -5.34643616 2.39669364 -2 1 C-1.01 1.495 -1.01 1.495 0 2 C0 1.34 0 0.68 0 0 Z " fill="#B4CDE2" transform="translate(338,327)"/>
<path d="M0 0 C0.60769226 0.29509964 1.21538452 0.59019928 1.8414917 0.89424133 C3.76867014 1.83326605 5.68883722 2.78576232 7.609375 3.73828125 C8.8811052 4.35825378 10.1532382 4.97740076 11.42578125 5.59570312 C18.84552022 9.21826888 26.15142957 13.02078279 33.359375 17.05078125 C33.359375 17.71078125 33.359375 18.37078125 33.359375 19.05078125 C30.10900223 18.4007067 27.25238462 17.15108403 24.234375 15.8046875 C22.07568166 14.89117065 22.07568166 14.89117065 18.546875 14.05078125 C15.359375 13.05078125 15.359375 13.05078125 13.359375 10.05078125 C10.79654758 9.32112759 10.79654758 9.32112759 8.359375 9.05078125 C8.359375 8.39078125 8.359375 7.73078125 8.359375 7.05078125 C7.81796875 6.93863281 7.2765625 6.82648438 6.71875 6.7109375 C3.85909279 5.91080162 1.30193792 4.73839975 -1.390625 3.48828125 C-2.37546875 3.03324219 -3.3603125 2.57820313 -4.375 2.109375 C-5.12265625 1.76003906 -5.8703125 1.41070312 -6.640625 1.05078125 C-6.640625 0.39078125 -6.640625 -0.26921875 -6.640625 -0.94921875 C-8.05813063 -0.83412214 -9.47463669 -0.70668217 -10.890625 -0.57421875 C-12.07398438 -0.46980469 -12.07398438 -0.46980469 -13.28125 -0.36328125 C-15.68433225 -0.05965235 -15.68433225 -0.05965235 -17.8125 1.15234375 C-18.41578125 1.44882812 -19.0190625 1.7453125 -19.640625 2.05078125 C-20.300625 1.72078125 -20.960625 1.39078125 -21.640625 1.05078125 C-21.970625 1.71078125 -22.300625 2.37078125 -22.640625 3.05078125 C-23.300625 2.39078125 -23.960625 1.73078125 -24.640625 1.05078125 C-22.96436545 0.17476134 -21.27390044 -0.67410154 -19.578125 -1.51171875 C-18.63839844 -1.98738281 -17.69867188 -2.46304687 -16.73046875 -2.953125 C-10.64840382 -4.91384125 -5.52174829 -2.70588145 0 0 Z " fill="#B9D2E8" transform="translate(428.640625,312.94921875)"/>
<path d="M0 0 C3.465 1.485 3.465 1.485 7 3 C7 3.66 7 4.32 7 5 C7.78375 4.95875 8.5675 4.9175 9.375 4.875 C12 5 12 5 14 7 C15.56629455 7.6870092 17.13579739 8.36728156 18.71728516 9.01855469 C21.52410496 10.22533711 24.2628325 11.54932468 27.01171875 12.8828125 C28.09904297 13.41003906 29.18636719 13.93726563 30.30664062 14.48046875 C32.57309712 15.58292766 34.83871422 16.68711375 37.10351562 17.79296875 C38.18697266 18.31761719 39.27042969 18.84226562 40.38671875 19.3828125 C41.36858154 19.86121582 42.35044434 20.33961914 43.36206055 20.83251953 C45.59620517 21.82129136 47.61553054 22.51357529 50 23 C50 23.66 50 24.32 50 25 C51.9575985 25.50286934 53.91610377 26.0022099 55.875 26.5 C56.96554688 26.7784375 58.05609375 27.056875 59.1796875 27.34375 C61.84205069 28.07554418 61.84205069 28.07554418 64 28 C63.67 29.32 63.34 30.64 63 32 C57.72550316 31.48401661 53.79199693 29.48747288 49.25 26.9375 C38.27902455 20.95980461 26.97171981 15.72775302 15.65527344 10.44702148 C14.57011192 9.94058609 14.57011192 9.94058609 13.46302795 9.42391968 C12.10194318 8.78940177 10.7403549 8.15596229 9.37815857 7.52383423 C5.55270881 5.7446001 1.76474342 3.90426186 -2 2 C-1.34 1.34 -0.68 0.68 0 0 Z " fill="#81B0D3" transform="translate(181,327)"/>
<path d="M0 0 C0.33 0 0.66 0 1 0 C1.02313227 12.48230026 1.04091962 24.96459546 1.05181217 37.44691277 C1.05703905 43.24244822 1.06413319 49.03796906 1.07543945 54.83349609 C1.08627521 60.42258982 1.09227831 66.01166944 1.09487724 71.60077286 C1.09673024 73.7370946 1.10034848 75.87341553 1.10573006 78.00973129 C1.1129496 80.99332113 1.11399055 83.9768521 1.11352539 86.96044922 C1.11712067 87.85092957 1.12071594 88.74140991 1.12442017 89.65887451 C1.11405216 95.77189568 1.11405216 95.77189568 0 98 C-4.97306516 97.50269348 -8.63799813 96.44697666 -13 94 C-13 93.67 -13 93.34 -13 93 C-10.36 93 -7.72 93 -5 93 C-5 93.66 -5 94.32 -5 95 C-2.525 94.505 -2.525 94.505 0 94 C0 62.98 0 31.96 0 0 Z " fill="#8EC8F5" transform="translate(259,387)"/>
<path d="M0 0 C1.36705078 0.69222656 1.36705078 0.69222656 2.76171875 1.3984375 C19.6811785 9.93037781 36.84673761 17.95168029 54 26 C54 26.33 54 26.66 54 27 C48.98320604 26.49077655 45.31594542 25.42766517 40.875 23.0625 C39.66393048 22.43134353 38.45160234 21.80259845 37.23828125 21.17578125 C36.57393066 20.83111816 35.90958008 20.48645508 35.22509766 20.13134766 C30.87799151 17.92106788 26.46717872 15.84247209 22.0625 13.75 C21.17481934 13.325979 20.28713867 12.90195801 19.37255859 12.46508789 C12.68948526 9.28624541 6.06772035 6.2409845 -1 4 C-0.67 2.68 -0.34 1.36 0 0 Z " fill="#7FAFD3" transform="translate(133,323)"/>
<path d="M0 0 C4.97306516 0.49730652 8.63799813 1.55302334 13 4 C13 4.66 13 5.32 13 6 C13.86753906 6.10441406 14.73507813 6.20882813 15.62890625 6.31640625 C19.19112191 7.03875589 21.7454578 8.22193461 24.9375 9.9375 C29.78198395 12.46107408 29.78198395 12.46107408 34.9375 14.1875 C38.11365951 15.03015456 40.26828849 16.20282138 43 18 C43.9075 18.495 44.815 18.99 45.75 19.5 C48 21 48 21 49 24 C44.71357299 22.66862496 40.81607573 21.02030432 36.81640625 18.98828125 C35.64754883 18.39805176 34.47869141 17.80782227 33.27441406 17.19970703 C32.66698364 16.89083557 32.05955322 16.58196411 31.43371582 16.26373291 C28.30015737 14.67078789 25.16001622 13.09095396 22.01953125 11.51171875 C21.40786102 11.20391479 20.7961908 10.89611084 20.16598511 10.57897949 C13.51071003 7.23822706 6.78442597 4.06914508 0 1 C0 0.67 0 0.34 0 0 Z " fill="#84B2D5" transform="translate(144,430)"/>
<path d="M0 0 C4.36707171 0.61565861 7.88830404 2.2921293 11.75 4.3125 C19.13526262 8.08999385 26.58359566 11.72408724 34.0625 15.3125 C35.13274414 15.8278833 36.20298828 16.3432666 37.30566406 16.87426758 C42.49461397 19.36305379 47.68543976 21.79125369 53 24 C53 24.33 53 24.66 53 25 C47.59986404 24.64781722 43.87090888 23.09049892 39.11328125 20.578125 C35.26340869 18.62662122 31.33038611 16.91225421 27.375 15.1875 C18.76532941 11.41188465 10.36819762 7.2801623 2 3 C1.34 2.67 0.68 2.34 0 2 C0 1.34 0 0.68 0 0 Z " fill="#7EADD0" transform="translate(170,223)"/>
<path d="M0 0 C0.33 0 0.66 0 1 0 C1 31.68 1 63.36 1 96 C-1.31 95.67 -3.62 95.34 -6 95 C-5.01 94.01 -5.01 94.01 -4 93 C-2.68 93 -1.36 93 0 93 C-0.16455185 92.35331863 -0.3291037 91.70663727 -0.49864197 91.0403595 C-1.14345078 87.13007887 -1.08522709 83.30212527 -1.02172852 79.35424805 C-1.0073172 78.06568153 -1.0073172 78.06568153 -0.99261475 76.75108337 C-0.95972282 73.9212092 -0.9193533 71.09149417 -0.87890625 68.26171875 C-0.85459555 66.29588883 -0.83075246 64.33005307 -0.80735779 62.36421204 C-0.74461145 57.19714702 -0.67551809 52.03018565 -0.60510254 46.86322021 C-0.53433367 41.58789784 -0.46956792 36.31250213 -0.40429688 31.03710938 C-0.27540636 20.69132566 -0.13981048 10.34564151 0 0 Z " fill="#73B6E7" transform="translate(258,270)"/>
<path d="M0 0 C4.61800571 1.41223416 8.84061999 3.30120742 13.125 5.5 C14.52333192 6.20854175 15.92177517 6.9168638 17.3203125 7.625 C18.06571289 8.00398438 18.81111328 8.38296875 19.57910156 8.7734375 C24.04297378 11.03508474 28.52275675 13.26497552 33 15.5 C34.72922921 16.36445823 36.45840121 17.22903092 38.1875 18.09375 C38.92355469 18.46177734 39.65960938 18.82980469 40.41796875 19.20898438 C41.20107422 19.60053711 41.20107422 19.60053711 42 20 C41.34 20.66 40.68 21.32 40 22 C38.84242187 21.44570313 37.68484375 20.89140625 36.4921875 20.3203125 C34.95321122 19.58836036 33.41414388 18.85659964 31.875 18.125 C31.11445312 17.76019531 30.35390625 17.39539063 29.5703125 17.01953125 C25.44138513 15.06185017 21.38453786 13.33077028 17 12 C17 11.34 17 10.68 17 10 C15.95779297 9.85884766 15.95779297 9.85884766 14.89453125 9.71484375 C11.40627344 8.85337117 8.78258977 7.38025113 5.6875 5.5625 C4.61886719 4.94503906 3.55023437 4.32757813 2.44921875 3.69140625 C1.64097656 3.13324219 0.83273438 2.57507813 0 2 C0 1.34 0 0.68 0 0 Z " fill="#75AAD5" transform="translate(25,271)"/>
<path d="M0 0 C13.78051747 6.44469928 27.41839416 13.14647118 41 20 C41 20.66 41 21.32 41 22 C39.51882199 21.71872579 38.04006751 21.42466268 36.5625 21.125 C35.73878906 20.96257812 34.91507813 20.80015625 34.06640625 20.6328125 C33.04353516 20.31957031 33.04353516 20.31957031 32 20 C31.67 19.34 31.34 18.68 31 18 C29.39340145 17.01040244 29.39340145 17.01040244 27.4296875 16.125 C26.6975 15.77953125 25.9653125 15.4340625 25.2109375 15.078125 C24.44007813 14.72234375 23.66921875 14.3665625 22.875 14 C21.75351563 13.46632813 21.75351563 13.46632813 20.609375 12.921875 C16.13340607 10.83204978 11.78752134 9.21910358 7 8 C7 7.34 7 6.68 7 6 C6.34 6 5.68 6 5 6 C5 5.34 5 4.68 5 4 C4.01 4 3.02 4 2 4 C2 3.34 2 2.68 2 2 C1.34 2 0.68 2 0 2 C0 1.34 0 0.68 0 0 Z " fill="#7FB1D7" transform="translate(219,365)"/>
<path d="M0 0 C0.33 0 0.66 0 1 0 C1 6.27 1 12.54 1 19 C-6.93258427 19 -6.93258427 19 -11.25 17.1875 C-12.49523437 16.68283203 -12.49523437 16.68283203 -13.765625 16.16796875 C-16.0038486 14.99798823 -17.25384811 13.78805954 -19 12 C-21.03232242 10.80400932 -21.03232242 10.80400932 -23.1875 9.8125 C-23.90292969 9.46832031 -24.61835938 9.12414062 -25.35546875 8.76953125 C-25.89816406 8.51558594 -26.44085937 8.26164063 -27 8 C-26.67 7.34 -26.34 6.68 -26 6 C-20.1899059 7.67932952 -14.99131421 10.39208392 -9.625 13.125 C-8.69816406 13.59292969 -7.77132812 14.06085938 -6.81640625 14.54296875 C-4.54243112 15.69167784 -2.27096212 16.84534571 0 18 C0 12.06 0 6.12 0 0 Z " fill="#90BEE4" transform="translate(56,148)"/>
<path d="M0 0 C0.598125 0.350625 1.19625 0.70125 1.8125 1.0625 C-2.0207185 3.05379726 -5.86189418 5.02855099 -9.7109375 6.98901367 C-11.01657455 7.65683025 -12.3200171 8.32895681 -13.62109375 9.00561523 C-15.50206589 9.98288412 -17.39063743 10.94388481 -19.28125 11.90234375 C-20.97797852 12.77427368 -20.97797852 12.77427368 -22.70898438 13.66381836 C-26.68156417 15.26115901 -29.93948091 15.70239493 -34.1875 16.0625 C-33.6925 14.5775 -33.6925 14.5775 -33.1875 13.0625 C-32.18589844 12.91941406 -32.18589844 12.91941406 -31.1640625 12.7734375 C-27.40066381 11.874568 -24.04350818 10.33282027 -20.5625 8.6875 C-19.89476562 8.38328125 -19.22703125 8.0790625 -18.5390625 7.765625 C-15.21599207 6.21042804 -12.69162828 4.72870778 -10.1875 2.0625 C-7.5 1.875 -7.5 1.875 -5.1875 2.0625 C-5.1875 1.4025 -5.1875 0.7425 -5.1875 0.0625 C-2.1875 -0.9375 -2.1875 -0.9375 0 0 Z " fill="#BAD1E5" transform="translate(291.1875,469.9375)"/>
<path d="M0 0 C-3.40981383 2.79728844 -7.14941159 4.67680857 -11.1015625 6.57421875 C-11.77923676 6.90291458 -12.45691101 7.23161041 -13.15512085 7.57026672 C-14.58123671 8.26062202 -16.0083936 8.94883045 -17.43652344 9.63500977 C-19.6273925 10.68865061 -21.81385062 11.75106022 -24 12.81445312 C-25.38776622 13.48490228 -26.77577864 14.15484211 -28.1640625 14.82421875 C-28.81927887 15.14291428 -29.47449524 15.4616098 -30.14956665 15.78996277 C-34.76982606 18 -34.76982606 18 -37 18 C-35.82014044 14.46042133 -34.66472231 14.02441428 -31.46662903 12.37312317 C-30.83439926 12.06050034 -30.20216949 11.7478775 -29.55078125 11.42578125 C-28.90054489 11.09708542 -28.25030853 10.76838959 -27.58036804 10.42973328 C-26.20166874 9.73648946 -24.82038274 9.04836995 -23.43676758 8.36499023 C-21.33018207 7.32126077 -19.23632928 6.25474363 -17.14257812 5.18554688 C-15.80018769 4.51420638 -14.45710918 3.84423965 -13.11328125 3.17578125 C-12.18011833 2.69773796 -12.18011833 2.69773796 -11.22810364 2.21003723 C-7.3196319 0.30715097 -4.33348895 -0.33659372 0 0 Z " fill="#BDD3E7" transform="translate(402,417)"/>
<path d="M0 0 C3.64355817 0.58535588 6.45474318 1.5755654 9.6953125 3.328125 C10.5716333 3.79629639 11.4479541 4.26446777 12.35083008 4.74682617 C13.72404419 5.49089722 13.72404419 5.49089722 15.125 6.25 C22.32078364 10.09051944 29.4857174 13.81478888 37 17 C37 17.33 37 17.66 37 18 C31.1423523 17.49130954 26.73363321 15.73713536 21.5 13.125 C20.05263216 12.41814594 18.60472098 11.71240327 17.15625 11.0078125 C16.46402344 10.66911133 15.77179688 10.33041016 15.05859375 9.98144531 C12.07653758 8.55973447 9.04734833 7.27507469 6 6 C6 5.34 6 4.68 6 4 C4.02 3.34 2.04 2.68 0 2 C0 1.34 0 0.68 0 0 Z " fill="#BCD3E6" transform="translate(447,204)"/>
<path d="M0 0 C0 0.66 0 1.32 0 2 C-0.66 2 -1.32 2 -2 2 C-2 2.66 -2 3.32 -2 4 C-4.97 4.99 -7.94 5.98 -11 7 C-11 7.66 -11 8.32 -11 9 C-11.59167969 9.18175781 -12.18335938 9.36351562 -12.79296875 9.55078125 C-17.25251375 10.96939671 -21.00292355 12.53121748 -25 15 C-25.99 15 -26.98 15 -28 15 C-28 14.01 -28 13.02 -28 12 C-24.33606817 10.28616417 -20.66986349 8.57730161 -17.00146484 6.87304688 C-15.75343107 6.29238479 -14.50603071 5.71035931 -13.25927734 5.12695312 C-11.4687886 4.28939753 -9.6758337 3.45712034 -7.8828125 2.625 C-6.80402832 2.12226563 -5.72524414 1.61953125 -4.61376953 1.1015625 C-2 0 -2 0 0 0 Z " fill="#3A709E" transform="translate(223,16)"/>
<path d="M0 0 C1.65 0 3.3 0 5 0 C1.84454002 2.56630764 -1.38288114 4.23337229 -5.078125 5.91796875 C-6.81835938 6.71557617 -6.81835938 6.71557617 -8.59375 7.52929688 C-9.8124526 8.08213576 -11.03120321 8.63486881 -12.25 9.1875 C-13.48457648 9.75151231 -14.71895371 10.31596098 -15.953125 10.88085938 C-18.96681776 12.25821114 -21.98247154 13.6310771 -25 15 C-25.33 14.01 -25.66 13.02 -26 12 C-25.38511719 11.74605469 -24.77023437 11.49210937 -24.13671875 11.23046875 C-23.32847656 10.88628906 -22.52023437 10.54210937 -21.6875 10.1875 C-20.88699219 9.85105469 -20.08648437 9.51460938 -19.26171875 9.16796875 C-16.97867098 8.14287909 -16.97867098 8.14287909 -15.5234375 6.46484375 C-13.49892535 4.51819745 -11.63312556 4.09753881 -8.9375 3.375 C-5.37937845 2.42094734 -5.37937845 2.42094734 -2 1 C-1.34 1.33 -0.68 1.66 0 2 C0 1.34 0 0.68 0 0 Z " fill="#BFD5E6" transform="translate(338,327)"/>
<path d="M0 0 C4.3134396 1.33982331 8.24341509 3.00410069 12.2734375 5.0390625 C13.42714844 5.61914062 14.58085937 6.19921875 15.76953125 6.796875 C16.97139883 7.40616191 18.17322119 8.01553802 19.375 8.625 C20.60007332 9.24255878 21.8253321 9.85974982 23.05078125 10.4765625 C26.03569632 11.98077167 29.01867503 13.48869122 32 15 C31.67 15.99 31.34 16.98 31 18 C27.04 16.02 23.08 14.04 19 12 C19 11.34 19 10.68 19 10 C17.824375 9.9071875 17.824375 9.9071875 16.625 9.8125 C11.64711207 8.6967665 7.47546306 6.39693773 3 4 C3 3.34 3 2.68 3 2 C2.01 2 1.02 2 0 2 C0 1.34 0 0.68 0 0 Z " fill="#97BBE0" transform="translate(135,205)"/>
<path d="M0 0 C4.40886502 -0.15887802 8.11776684 0.36473782 12.375 1.5 C13.43460938 1.7784375 14.49421875 2.056875 15.5859375 2.34375 C16.38257813 2.5603125 17.17921875 2.776875 18 3 C18.33 4.65 18.66 6.3 19 8 C21.475 8.495 21.475 8.495 24 9 C24.33 9.99 24.66 10.98 25 12 C19.43335076 10.33913088 14.34213647 7.88928264 9.125 5.375 C8.24585938 4.95476562 7.36671875 4.53453125 6.4609375 4.1015625 C4.30577122 3.0708308 2.15220078 2.03690574 0 1 C0 0.67 0 0.34 0 0 Z " fill="#8BBBDF" transform="translate(221,468)"/>
<path d="M0 0 C10.34675136 0.89388781 18.87715668 5.40114581 28 10 C24.11911321 11.29362893 22.36457929 10.41911705 18.5 9.1875 C17.3553125 8.83042969 16.210625 8.47335938 15.03125 8.10546875 C12 7 12 7 9 5 C5.6142352 4.39539914 2.43937692 4 -1 4 C-0.67 2.68 -0.34 1.36 0 0 Z " fill="#5383AD" transform="translate(385,58)"/>
<path d="M0 0 C-2.036994 1.29956591 -4.07907615 2.5896261 -6.125 3.875 C-6.69476563 4.23980469 -7.26453125 4.60460937 -7.8515625 4.98046875 C-11.4845598 7.25109207 -14.92848025 8.72147695 -19 10 C-21.64668631 11.29657032 -24.23280765 12.6782526 -26.828125 14.07421875 C-27.54484375 14.37972656 -28.2615625 14.68523437 -29 15 C-29.66 14.67 -30.32 14.34 -31 14 C-26.97026166 9.37644161 -20.92615234 7.34485274 -15.5 4.75 C-14.34628906 4.1828125 -13.19257813 3.615625 -12.00390625 3.03125 C-10.89917969 2.50015625 -9.79445313 1.9690625 -8.65625 1.421875 C-7.64369141 0.93299805 -6.63113281 0.44412109 -5.58789062 -0.05957031 C-3 -1 -3 -1 0 0 Z " fill="#AFC8E3" transform="translate(369,334)"/>
<path d="M0 0 C2.12563103 0.11376617 4.2505261 0.24135631 6.375 0.375 C8.15003906 0.47941406 8.15003906 0.47941406 9.9609375 0.5859375 C13 1 13 1 15 3 C15.99 4.485 15.99 4.485 17 6 C18.010625 6.495 19.02125 6.99 20.0625 7.5 C23 9 23 9 24 12 C18.54406329 10.39323547 13.6697853 7.94969106 8.625 5.375 C7.79355469 4.95476562 6.96210937 4.53453125 6.10546875 4.1015625 C4.06843641 3.07133925 2.03337811 2.03741179 0 1 C0 0.67 0 0.34 0 0 Z " fill="#86BCDE" transform="translate(113,415)"/>
<path d="M0 0 C-1.40639814 2.81279628 -3.16413077 3.22225794 -5.98828125 4.56640625 C-7.00470703 5.05173828 -8.02113281 5.53707031 -9.06835938 6.03710938 C-10.13892578 6.54048828 -11.20949219 7.04386719 -12.3125 7.5625 C-13.90094727 8.32336914 -13.90094727 8.32336914 -15.52148438 9.09960938 C-24.15612854 13.19601984 -24.15612854 13.19601984 -28 14 C-27.67 12.68 -27.34 11.36 -27 10 C-25.68 10 -24.36 10 -23 10 C-23 9.34 -23 8.68 -23 8 C-21.75336669 7.49166409 -20.50250613 6.99368855 -19.25 6.5 C-18.55390625 6.2215625 -17.8578125 5.943125 -17.140625 5.65625 C-15 5 -15 5 -11 5 C-11 4.34 -11 3.68 -11 3 C-10.01 3 -9.02 3 -8 3 C-8 2.34 -8 1.68 -8 1 C-5.29120665 -0.35439668 -2.99066732 -0.06501451 0 0 Z " fill="#4A7EA6" transform="translate(302,225)"/>
<path d="M0 0 C0.71542969 0.26941406 1.43085938 0.53882813 2.16796875 0.81640625 C2.71066406 1.02136719 3.25335938 1.22632813 3.8125 1.4375 C3.8125 2.0975 3.8125 2.7575 3.8125 3.4375 C4.616875 3.685 5.42125 3.9325 6.25 4.1875 C10.55574143 5.69828647 14.66614007 7.53938856 18.8125 9.4375 C17.13110352 10.57128906 17.13110352 10.57128906 14.8125 11.4375 C12.38647461 10.68652344 12.38647461 10.68652344 9.71484375 9.296875 C8.74869141 8.80316406 7.78253906 8.30945313 6.78710938 7.80078125 C5.28374023 7.00220703 5.28374023 7.00220703 3.75 6.1875 C2.74388672 5.67058594 1.73777344 5.15367187 0.70117188 4.62109375 C-3.04273572 2.68536597 -6.67840085 0.77689944 -10.1875 -1.5625 C-6.18090628 -2.89803124 -3.78820202 -1.42833847 0 0 Z " fill="#356591" transform="translate(178.1875,202.5625)"/>
<path d="M0 0 C-4.10093573 3.20822288 -8.4850639 5.42636691 -13.125 7.75 C-13.94871094 8.17410156 -14.77242188 8.59820312 -15.62109375 9.03515625 C-16.80251953 9.62876953 -16.80251953 9.62876953 -18.0078125 10.234375 C-19.08506592 10.77916504 -19.08506592 10.77916504 -20.18408203 11.33496094 C-21.08296143 11.66415527 -21.08296143 11.66415527 -22 12 C-24 11 -24 11 -25 9 C-23.02 8.34 -21.04 7.68 -19 7 C-19 6.34 -19 5.68 -19 5 C-15.846632 4.29925156 -13.27275026 4 -10 4 C-10 3.34 -10 2.68 -10 2 C-3.375 -1.125 -3.375 -1.125 0 0 Z " fill="#38689A" transform="translate(451,152)"/>
<path d="M0 0 C0.99 0.33 1.98 0.66 3 1 C3 1.66 3 2.32 3 3 C0.01490342 4.69443888 -2.99008121 6.35011859 -6 8 C-7.25876953 8.71542969 -7.25876953 8.71542969 -8.54296875 9.4453125 C-14.03182511 12.42376169 -17.75384679 13.57834752 -24 13 C-20.25 11 -20.25 11 -18 11 C-18 10.34 -18 9.68 -18 9 C-9.91011236 5.13483146 -9.91011236 5.13483146 -5.625 4.5 C-2.84322569 4.24261833 -2.84322569 4.24261833 -1.125 1.9375 C-0.75375 1.298125 -0.3825 0.65875 0 0 Z " fill="#4B77A2" transform="translate(325,210)"/>
<path d="M0 0 C5.00402952 1.51613453 9.53223919 3.59914319 14.1875 5.9375 C15.25387695 6.45860352 15.25387695 6.45860352 16.34179688 6.99023438 C17.02693359 7.33248047 17.71207031 7.67472656 18.41796875 8.02734375 C19.03438232 8.33406006 19.6507959 8.64077637 20.28588867 8.95678711 C22.19003712 10.11565711 23.57567171 11.28455195 25 13 C24.6875 15.1875 24.6875 15.1875 24 17 C23.5875 16.360625 23.175 15.72125 22.75 15.0625 C20.82189513 12.79009069 19.88575819 12.39803561 17 12 C17 11.34 17 10.68 17 10 C16.47921875 9.90847656 15.9584375 9.81695312 15.421875 9.72265625 C12.12441749 8.73873748 9.24326632 7.09859834 6.25 5.4375 C5.64800781 5.10814453 5.04601562 4.77878906 4.42578125 4.43945312 C2.94829497 3.6303535 1.47383964 2.81572338 0 2 C0 1.34 0 0.68 0 0 Z " fill="#B4CEE3" transform="translate(488,343)"/>
<path d="M0 0 C3.65569682 0.59458415 6.56821446 1.60573511 9.86328125 3.28515625 C10.74951172 3.73310547 11.63574219 4.18105469 12.54882812 4.64257812 C13.46083984 5.11115234 14.37285156 5.57972656 15.3125 6.0625 C16.24384766 6.53494141 17.17519531 7.00738281 18.13476562 7.49414062 C20.42598769 8.65737644 22.7142124 9.82613132 25 11 C25 11.33 25 11.66 25 12 C19.20730854 11.61382057 14.80888091 9.70415518 9.59765625 7.1953125 C6.88540048 5.87086995 6.88540048 5.87086995 3.375 4.9375 C2.59125 4.628125 1.8075 4.31875 1 4 C0.125 1.875 0.125 1.875 0 0 Z " fill="#8CBCDC" transform="translate(74,295)"/>
<path d="M0 0 C4.34871558 0.66839841 8.04081951 2.17828361 12.0625 3.9375 C13.27035156 4.46214844 14.47820313 4.98679687 15.72265625 5.52734375 C18.18329231 6.63301693 20.60393418 7.76312812 23 9 C23 7.35 23 5.7 23 4 C23.33 4 23.66 4 24 4 C24.25 10.625 24.25 10.625 22 14 C21.59676514 13.55164795 21.19353027 13.1032959 20.77807617 12.64135742 C18.8034964 10.81860584 16.98559099 9.86581059 14.55078125 8.73828125 C13.70322266 8.34189453 12.85566406 7.94550781 11.98242188 7.53710938 C11.10134766 7.13298828 10.22027344 6.72886719 9.3125 6.3125 C8.41982422 5.89677734 7.52714844 5.48105469 6.60742188 5.05273438 C4.40759019 4.02928327 2.20513181 3.01196796 0 2 C0 1.34 0 0.68 0 0 Z " fill="#80B1D9" transform="translate(33,256)"/>
<path d="M0 0 C3.56553155 0.61123398 6.66981698 1.59781768 10 3 C10.99 3.33 11.98 3.66 13 4 C13.4125 4.45375 13.825 4.9075 14.25 5.375 C16.83961486 7.77964237 19.72315134 8.701626 23 10 C23 10.99 23 11.98 23 13 C17.7936703 11.41980408 13.01626689 9.22115005 8.125 6.875 C7.34125 6.50246094 6.5575 6.12992187 5.75 5.74609375 C3.83186501 4.83381003 1.91572671 3.91733016 0 3 C0 2.01 0 1.02 0 0 Z " fill="#90B8DA" transform="translate(30,373)"/>
<path d="M0 0 C4.93148592 0.65557452 9.05708059 2.6984684 13.5 4.8125 C14.24636719 5.15603516 14.99273437 5.49957031 15.76171875 5.85351562 C19.95335088 7.8306306 23.49497549 9.9052859 27 13 C20.3735973 12.57278337 15.38887356 9.98701302 9.5625 6.9375 C8.64017578 6.46505859 7.71785156 5.99261719 6.76757812 5.50585938 C4.50688455 4.34622899 2.25142445 3.17749658 0 2 C0 1.34 0 0.68 0 0 Z " fill="#86B1D6" transform="translate(141,308)"/>
<path d="M0 0 C0.66 0.33 1.32 0.66 2 1 C1.01 1.33 0.02 1.66 -1 2 C-1 2.66 -1 3.32 -1 4 C-5.29231862 5.88862019 -9.53783467 7.54494609 -14 9 C-15.67163195 9.65411685 -17.34015202 10.31653318 -19 11 C-19 12.32 -19 13.64 -19 15 C-21.46800047 13.84826645 -23.04783565 12.95216435 -25 11 C-20.88061575 9.13316794 -16.75366476 7.28370576 -12.625 5.4375 C-10.8615625 4.63795898 -10.8615625 4.63795898 -9.0625 3.82226562 C-7.94101562 3.32275391 -6.81953125 2.82324219 -5.6640625 2.30859375 C-4.10872803 1.60947876 -4.10872803 1.60947876 -2.52197266 0.89624023 C-1.68972168 0.60048096 -0.8574707 0.30472168 0 0 Z " fill="#6B92B4" transform="translate(43,97)"/>
<path d="M0 0 C2.47717167 3.71575751 2.30345742 5.59986738 2 10 C1.125 12.875 1.125 12.875 0 15 C-3.17878694 16.58939347 -5.4956772 16.41576711 -9 16 C-11.13155789 14.18128269 -12.39116711 12.34012057 -14 10 C-13.34 9.67 -12.68 9.34 -12 9 C-11.01 9.66 -10.02 10.32 -9 11 C-9 11.66 -9 12.32 -9 13 C-6.6568787 12.74438677 -4.32156597 12.40729228 -2 12 C-0.78306124 9.56612247 -0.68040104 7.58161154 -0.4375 4.875 C-0.35371094 3.96492188 -0.26992187 3.05484375 -0.18359375 2.1171875 C-0.12300781 1.41851562 -0.06242187 0.71984375 0 0 Z " fill="#3D6B99" transform="translate(115,280)"/>
<path d="M0 0 C-3.5767224 4.26899125 -6.55978744 5.83488968 -11.9140625 7.32421875 C-14.26760412 7.98249228 -14.26760412 7.98249228 -17 10 C-20.1875 9.625 -20.1875 9.625 -23 9 C-19.67865178 6.78576785 -16.22033664 5.08243787 -12.625 3.375 C-11.635 2.88773437 -11.635 2.88773437 -10.625 2.390625 C-6.94477012 0.64581482 -4.09076457 -0.42645036 0 0 Z " fill="#B9D3EA" transform="translate(282,257)"/>
<path d="M0 0 C4.49757861 1.34621401 8.7629153 2.71285607 12.8125 5.125 C15.37350682 6.6314746 17.12026912 7.53924306 20 8 C20 8.66 20 9.32 20 10 C20.99 10.33 21.98 10.66 23 11 C23 11.66 23 12.32 23 13 C17.54406329 11.39323547 12.6697853 8.94969106 7.625 6.375 C6.79355469 5.95476562 5.96210938 5.53453125 5.10546875 5.1015625 C3.06843641 4.07133925 1.03337811 3.03741179 -1 2 C-0.67 1.34 -0.34 0.68 0 0 Z " fill="#80B5D8" transform="translate(8,243)"/>
<path d="M0 0 C-1.52367187 0.76183594 -1.52367187 0.76183594 -3.078125 1.5390625 C-3.73925293 1.86970703 -4.40038086 2.20035156 -5.08154297 2.54101562 C-6.53343141 3.26679638 -7.98558226 3.99205243 -9.43798828 4.71679688 C-12.85290987 6.42161746 -16.26501457 8.13090178 -19.6640625 9.8671875 C-20.72367187 10.40601563 -21.78328125 10.94484375 -22.875 11.5 C-24.29425781 12.22703125 -24.29425781 12.22703125 -25.7421875 12.96875 C-28 14 -28 14 -30 14 C-30 13.34 -30 12.68 -30 12 C-26.37821822 10.11489227 -22.7487036 8.24571848 -19.11132812 6.39086914 C-17.87538183 5.75781952 -16.64162479 5.12047645 -15.41015625 4.47875977 C-13.63864721 3.55657502 -11.85846998 2.65110245 -10.078125 1.74609375 C-9.00981445 1.19622803 -7.94150391 0.6463623 -6.84082031 0.07983398 C-3.91662097 -1.03169349 -2.83704408 -1.17611637 0 0 Z " fill="#AECAE0" transform="translate(290,373)"/>
<path d="M0 0 C4.78213584 1.08061754 7.72365684 1.92516046 10.87890625 5.8984375 C11.62140625 6.6409375 12.36390625 7.3834375 13.12890625 8.1484375 C13.99515625 9.0146875 13.99515625 9.0146875 14.87890625 9.8984375 C13.88890625 10.3934375 13.88890625 10.3934375 12.87890625 10.8984375 C10.99951172 10.18579102 10.99951172 10.18579102 8.74609375 9.02734375 C7.94042969 8.61806641 7.13476562 8.20878906 6.3046875 7.78710938 C5.46292969 7.34947266 4.62117187 6.91183594 3.75390625 6.4609375 C2.90441406 6.02716797 2.05492187 5.59339844 1.1796875 5.14648438 C-0.92431467 4.07084282 -3.02423955 2.98792984 -5.12109375 1.8984375 C-2.12109375 -0.1015625 -2.12109375 -0.1015625 0 0 Z " fill="#80B7DC" transform="translate(206.12109375,457.1015625)"/>
<path d="M0 0 C1.98 0 3.96 0 6 0 C2.61471579 2.74368421 -1.06427716 4.7325224 -4.9375 6.6875 C-5.54529297 7.00783203 -6.15308594 7.32816406 -6.77929688 7.65820312 C-10.33285554 9.45606614 -13.00901176 10.40137073 -17 10 C-15.68 9.34 -14.36 8.68 -13 8 C-13 7.01 -13 6.02 -13 5 C-11.35 5 -9.7 5 -8 5 C-8 4.34 -8 3.68 -8 3 C-5.36 2.34 -2.72 1.68 0 1 C0 0.67 0 0.34 0 0 Z " fill="#C8DBED" transform="translate(445,274)"/>
<path d="M0 0 C0.66 0 1.32 0 2 0 C2 0.66 2 1.32 2 2 C2.66 2 3.32 2 4 2 C4 7.33333333 4 12.66666667 4 18 C3.01 18.66 2.02 19.32 1 20 C-0.1482685 17.703463 -0.11561175 16.41686833 -0.09765625 13.8671875 C-0.09443359 13.06152344 -0.09121094 12.25585938 -0.08789062 11.42578125 C-0.07951172 10.58402344 -0.07113281 9.74226562 -0.0625 8.875 C-0.05798828 8.02550781 -0.05347656 7.17601562 -0.04882812 6.30078125 C-0.03702874 4.20049091 -0.01909306 2.1002367 0 0 Z " fill="#1D548A" transform="translate(57,148)"/>
<path d="M0 0 C-6.93 3.3 -13.86 6.6 -21 10 C-21.33 9.01 -21.66 8.02 -22 7 C-16.67113839 2.55928199 -13.92088947 1.39290443 -7 2 C-7 1.34 -7 0.68 -7 0 C-4 -1 -4 -1 0 0 Z " fill="#5C84AB" transform="translate(491,134)"/>
<path d="M0 0 C6.7186905 1.99613268 12.80734808 4.7291421 19 8 C19 8.33 19 8.66 19 9 C15.37 8.67 11.74 8.34 8 8 C8 7.34 8 6.68 8 6 C5.36 5.34 2.72 4.68 0 4 C0 2.68 0 1.36 0 0 Z " fill="#6DAFE2" transform="translate(0,259)"/>
<path d="M0 0 C4.67442967 0.33388783 8.06671058 0.84875442 12.1875 3.125 C14.96717929 4.6491634 15.72325638 5.02306197 19 4.75 C19.99 4.37875 19.99 4.37875 21 4 C20.67 5.98 20.34 7.96 20 10 C15.26210835 8.55676531 11.01141849 6.62773267 6.625 4.375 C5.66400391 3.88773438 5.66400391 3.88773438 4.68359375 3.390625 C3.12052499 2.59742593 1.55999378 1.79922969 0 1 C0 0.67 0 0.34 0 0 Z " fill="#5784AC" transform="translate(209,221)"/>
<path d="M0 0 C5.09882455 1.5280389 9.65665659 3.71036856 14.375 6.125 C15.11105469 6.49753906 15.84710938 6.87007813 16.60546875 7.25390625 C18.40550358 8.1656122 20.20301402 9.08229932 22 10 C21.67 10.99 21.34 11.98 21 13 C10.53420195 8.50814332 10.53420195 8.50814332 7 6 C7 5.34 7 4.68 7 4 C4.69 3.67 2.38 3.34 0 3 C0 2.01 0 1.02 0 0 Z " fill="#85B6DB" transform="translate(99,307)"/>
<path d="M0 0 C3.88999932 0.5762962 6.14170537 2.36736021 9 5 C10.86983434 8.01606841 11.22861668 10.22703289 11.125 13.75 C11.10695313 14.54921875 11.08890625 15.3484375 11.0703125 16.171875 C11.03550781 17.07679687 11.03550781 17.07679687 11 18 C10.01 18.33 9.02 18.66 8 19 C8.04125 17.80375 8.0825 16.6075 8.125 15.375 C8.13851708 11.57670047 7.42009753 8.55024382 6 5 C5.01 5 4.02 5 3 5 C3 4.34 3 3.68 3 3 C2.34 3 1.68 3 1 3 C0.67 2.01 0.34 1.02 0 0 Z " fill="#567CA3" transform="translate(492,105)"/>
<path d="M0 0 C4.0663003 -0.18483183 6.45811739 0.06806403 10 2 C11.216875 2.33 12.43375 2.66 13.6875 3 C14.780625 3.33 15.87375 3.66 17 4 C17.33 4.66 17.66 5.32 18 6 C17.34 6 16.68 6 16 6 C16 6.66 16 7.32 16 8 C10.31497465 6.35433477 5.23318364 3.70967216 0 1 C0 0.67 0 0.34 0 0 Z " fill="#4876A1" transform="translate(131,183)"/>
<path d="M0 0 C0.66 0.28875 1.32 0.5775 2 0.875 C5.62499465 2.23437299 9.23346693 3.10624639 13 4 C13.33 3.34 13.66 2.68 14 2 C16.475 3.98 16.475 3.98 19 6 C18.67 6.66 18.34 7.32 18 8 C11.18012971 7.56699236 6.08356979 6.09212176 0 3 C0 2.01 0 1.02 0 0 Z " fill="#72B2E3" transform="translate(53,384)"/>
<path d="M0 0 C4.95757898 1.54826599 9.63810401 3.51780938 14.375 5.625 C15.11105469 5.94984375 15.84710938 6.2746875 16.60546875 6.609375 C18.40470969 7.40384503 20.20250496 8.20158771 22 9 C20.02 9.99 20.02 9.99 18 11 C18 10.34 18 9.68 18 9 C16.63875 8.938125 16.63875 8.938125 15.25 8.875 C9.34298458 8.08333814 4.17739441 4.77998025 -1 2 C-0.67 1.34 -0.34 0.68 0 0 Z " fill="#628BB2" transform="translate(270,4)"/>
<path d="M0 0 C0.66 0.33 1.32 0.66 2 1 C-0.56274498 3.98986914 -3.46669772 5.33726951 -7 7 C-8.051875 7.5775 -9.10375 8.155 -10.1875 8.75 C-13 10 -13 10 -16 9 C-15.34 9 -14.68 9 -14 9 C-14 8.01 -14 7.02 -14 6 C-11.71220962 4.96959833 -9.42048864 3.95047982 -7.125 2.9375 C-6.47402344 2.64294922 -5.82304687 2.34839844 -5.15234375 2.04492188 C-3.45989459 1.30338487 -1.73131425 0.64560999 0 0 Z " fill="#42729E" transform="translate(142,52)"/>
<path d="M0 0 C0 0.66 0 1.32 0 2 C-2.60060504 3.34070318 -5.20504916 4.67273354 -7.8125 6 C-8.55048828 6.3815625 -9.28847656 6.763125 -10.04882812 7.15625 C-10.76103516 7.5171875 -11.47324219 7.878125 -12.20703125 8.25 C-12.8616333 8.58515625 -13.51623535 8.9203125 -14.19067383 9.265625 C-16 10 -16 10 -19 10 C-19 9.01 -19 8.02 -19 7 C-14.69677317 5.53060547 -10.37702633 4.22556737 -6 3 C-6 2.34 -6 1.68 -6 1 C-3 0 -3 0 0 0 Z " fill="#B4CCE0" transform="translate(438,398)"/>
<path d="M0 0 C1.9195604 0.76359871 3.83554712 1.53618478 5.75 2.3125 C7.35101562 2.95638672 7.35101562 2.95638672 8.984375 3.61328125 C11.6652915 4.84608612 13.7383192 6.12807487 16 8 C12.96569711 8.23340791 10.027719 8.35218259 7 8 C4.75 6.0625 4.75 6.0625 3 4 C0.35815459 3.20318682 0.35815459 3.20318682 -2 3 C-1 1 -1 1 0 0 Z " fill="#8CB5D9" transform="translate(14,146)"/>
<path d="M0 0 C7.66795502 2.33937611 14.77137274 5.54768806 22 9 C18.06329512 10.31223496 15.87511856 9.24296256 12 8 C12 7.34 12 6.68 12 6 C10.948125 5.896875 9.89625 5.79375 8.8125 5.6875 C5.11371887 5.02050668 2.97013189 4.25009992 0 2 C0 1.34 0 0.68 0 0 Z " fill="#437099" transform="translate(344,38)"/>
<path d="M0 0 C3.465 1.485 3.465 1.485 7 3 C7 3.66 7 4.32 7 5 C7.78375 4.95875 8.5675 4.9175 9.375 4.875 C12 5 12 5 14 7 C15.31747324 7.69748583 16.64914193 8.36959957 18 9 C15.70456573 9.78821819 14.41991018 10.13558044 12.07714844 9.37915039 C11.4277832 9.03875732 10.77841797 8.69836426 10.109375 8.34765625 C9.40039062 7.98349609 8.69140625 7.61933594 7.9609375 7.24414062 C7.23132813 6.85419922 6.50171875 6.46425781 5.75 6.0625 C5.00492188 5.67642578 4.25984375 5.29035156 3.4921875 4.89257812 C1.65585606 3.93909834 -0.17284207 2.97094323 -2 2 C-1.34 1.34 -0.68 0.68 0 0 Z " fill="#9BC3DF" transform="translate(181,327)"/>
<path d="M0 0 C0 0.66 0 1.32 0 2 C-1.9151579 2.81604999 -3.83218834 3.62770632 -5.75 4.4375 C-6.81734375 4.88996094 -7.8846875 5.34242187 -8.984375 5.80859375 C-11.3413841 6.73979553 -13.52992835 7.4784072 -16 8 C-15 5 -15 5 -12.890625 3.61328125 C-12.01921875 3.18402344 -11.1478125 2.75476563 -10.25 2.3125 C-9.38890625 1.87550781 -8.5278125 1.43851562 -7.640625 0.98828125 C-4.88971748 -0.04127438 -2.90929095 -0.19360389 0 0 Z " fill="#567EA2" transform="translate(16,111)"/>
<path d="M0 0 C-2.89585905 2.29648357 -5.8172031 4.04347557 -9.125 5.6875 C-10.42824219 6.34298828 -10.42824219 6.34298828 -11.7578125 7.01171875 C-14 8 -14 8 -16 8 C-16 7.01 -16 6.02 -16 5 C-15.34 5 -14.68 5 -14 5 C-14 4.34 -14 3.68 -14 3 C-12.35 3.33 -10.7 3.66 -9 4 C-9 3.01 -9 2.02 -9 1 C-5.92677456 0.08941469 -3.19902639 -0.08886184 0 0 Z " fill="#466EA2" transform="translate(355,199)"/>
<path d="M0 0 C4.6889493 0.55619669 8.19924267 1.88182673 12.375 4.0625 C13.43460938 4.61035156 14.49421875 5.15820312 15.5859375 5.72265625 C16.38257813 6.14417969 17.17921875 6.56570313 18 7 C18 7.33 18 7.66 18 8 C11.61736662 7.5837413 6.44195901 5.34649204 1 2 C0.67 1.34 0.34 0.68 0 0 Z " fill="#91BFDB" transform="translate(169,342)"/>
<path d="M0 0 C5.91969002 1.75990784 11.41634992 4.39694605 17 7 C17 7.66 17 8.32 17 9 C16.01 9 15.02 9 14 9 C14 8.34 14 7.68 14 7 C12.989375 6.9175 11.97875 6.835 10.9375 6.75 C6.62213084 6.15993932 3.65261803 4.31083998 0 2 C0 1.34 0 0.68 0 0 Z " fill="#87B4D6" transform="translate(25,271)"/>
<path d="M0 0 C-0.6796875 1.890625 -0.6796875 1.890625 -2 4 C-4.3828125 5.046875 -4.3828125 5.046875 -7.125 5.75 C-8.03507812 5.99234375 -8.94515625 6.2346875 -9.8828125 6.484375 C-10.93082031 6.73960937 -10.93082031 6.73960937 -12 7 C-12.66 6.34 -13.32 5.68 -14 5 C-12.421924 4.15675328 -10.8372958 3.32576082 -9.25 2.5 C-8.36828125 2.0359375 -7.4865625 1.571875 -6.578125 1.09375 C-4 0 -4 0 0 0 Z " fill="#BAD7EB" transform="translate(310,362)"/>
<path d="M0 0 C1.65 0 3.3 0 5 0 C1.80815657 2.64179275 -1.41581339 4.14549017 -5.25 5.6875 C-6.32765625 6.12449219 -7.4053125 6.56148437 -8.515625 7.01171875 C-9.33546875 7.33785156 -10.1553125 7.66398438 -11 8 C-11 7.01 -11 6.02 -11 5 C-9.68 5 -8.36 5 -7 5 C-7 4.01 -7 3.02 -7 2 C-4.69 2 -2.38 2 0 2 C0 1.34 0 0.68 0 0 Z " fill="#7293B7" transform="translate(394,178)"/>
<path d="M0 0 C2.64 0 5.28 0 8 0 C8 0.66 8 1.32 8 2 C9.65 1.67 11.3 1.34 13 1 C13 2.32 13 3.64 13 5 C8.02693484 4.50269348 4.36200187 3.44697666 0 1 C0 0.67 0 0.34 0 0 Z " fill="#93C0DF" transform="translate(246,480)"/>
<path d="M0 0 C2.81724453 1.28149672 5.62788457 2.57687233 8.4375 3.875 C9.23994141 4.23980469 10.04238281 4.60460937 10.86914062 4.98046875 C11.63291016 5.33496094 12.39667969 5.68945312 13.18359375 6.0546875 C13.89056396 6.37937012 14.59753418 6.70405273 15.32592773 7.03857422 C17 8 17 8 18 10 C12.93944961 9.51804282 10.11186217 7.91256904 6 5 C4.01492052 3.97069953 2.01885749 2.96136071 0 2 C0 1.34 0 0.68 0 0 Z " fill="#ACC5DC" transform="translate(463,331)"/>
<path d="M0 0 C-3.55991828 2.96659857 -7.65222543 5.381348 -12 7 C-12.66 6.67 -13.32 6.34 -14 6 C-14 5.34 -14 4.68 -14 4 C-12.68 4 -11.36 4 -10 4 C-10 3.34 -10 2.68 -10 2 C-3.375 -1.125 -3.375 -1.125 0 0 Z " fill="#426F9C" transform="translate(451,152)"/>
<path d="M0 0 C5.68502535 1.64566523 10.76681636 4.29032784 16 7 C16 7.33 16 7.66 16 8 C9.68368172 7.59683075 5.35006016 5.28767869 0 2 C0 1.34 0 0.68 0 0 Z " fill="#C3D7E7" transform="translate(488,343)"/>
<path d="M0 0 C-1 3 -1 3 -2.63671875 3.87890625 C-3.31347656 4.10449219 -3.99023438 4.33007812 -4.6875 4.5625 C-5.40292969 4.80742187 -6.11835938 5.05234375 -6.85546875 5.3046875 C-7.56316406 5.53414062 -8.27085937 5.76359375 -9 6 C-10.7325 6.5878125 -10.7325 6.5878125 -12.5 7.1875 C-13.325 7.455625 -14.15 7.72375 -15 8 C-14 5 -14 5 -11.34765625 3.61328125 C-10.26355469 3.18402344 -9.17945313 2.75476563 -8.0625 2.3125 C-6.98097656 1.87550781 -5.89945312 1.43851563 -4.78515625 0.98828125 C-2 0 -2 0 0 0 Z " fill="#B6CCDE" transform="translate(313,241)"/>
<path d="M0 0 C0.33 0.66 0.66 1.32 1 2 C2.99319761 2.26140296 4.98774473 2.51730424 6.98828125 2.71484375 C9.29528168 3.04185546 11.02738757 3.76711723 13 5 C10.39385869 6.70401547 9.10024068 7.00613718 5.9375 6.8125 C2.95824874 5.98845178 1.7408087 5.51450145 0 3 C0 2.01 0 1.02 0 0 Z " fill="#5C85AC" transform="translate(56,271)"/>
<path d="M0 0 C4.9723422 1.49170266 9.41845739 3.60457417 14 6 C14 6.33 14 6.66 14 7 C8.34388537 7.56561146 4.77357872 5.71391278 0 3 C0 2.01 0 1.02 0 0 Z " fill="#96C1DD" transform="translate(223,248)"/>
<path d="M0 0 C-1.57351881 3.14703761 -4.30201662 3.7416747 -7.4375 5.1875 C-8.61183594 5.73792969 -9.78617187 6.28835937 -10.99609375 6.85546875 C-11.98738281 7.23316406 -12.97867187 7.61085937 -14 8 C-14.66 7.67 -15.32 7.34 -16 7 C-15.67 6.34 -15.34 5.68 -15 5 C-13.68 5 -12.36 5 -11 5 C-11 4.34 -11 3.68 -11 3 C-10.01 3 -9.02 3 -8 3 C-8 2.34 -8 1.68 -8 1 C-5.29120665 -0.35439668 -2.99066732 -0.06501451 0 0 Z " fill="#6B8EB6" transform="translate(302,225)"/>
<path d="M0 0 C-1.7664657 1.0076952 -3.53833823 2.00591714 -5.3125 3 C-6.79169922 3.8353125 -6.79169922 3.8353125 -8.30078125 4.6875 C-11 6 -11 6 -14 6 C-13 3 -13 3 -10.8125 1.375 C-7.24888242 -0.36721304 -3.72412682 -1.86206341 0 0 Z " fill="#AFCAE0" transform="translate(453,392)"/>
<path d="M0 0 C-2.11997834 1.19733988 -4.24513676 2.38298713 -6.375 3.5625 C-6.97828125 3.90474609 -7.5815625 4.24699219 -8.203125 4.59960938 C-9.76978241 5.46127095 -11.38290862 6.23718183 -13 7 C-13.66 6.67 -14.32 6.34 -15 6 C-12.87748883 3.69895986 -10.84451444 2.18105541 -8.0625 0.75 C-7.39347656 0.39421875 -6.72445313 0.0384375 -6.03515625 -0.328125 C-3.61730731 -1.12634 -2.36988243 -0.82707306 0 0 Z " fill="#BED1E3" transform="translate(353,342)"/>
<path d="M0 0 C5.85659906 1.66153012 11.4590134 3.47041916 17 6 C17 6.33 17 6.66 17 7 C13.28400809 7.20086443 12.22791555 7.1519437 9 5 C7.45233858 4.4172881 5.88807778 3.87735813 4.3125 3.375 C3.50425781 3.11460938 2.69601562 2.85421875 1.86328125 2.5859375 C1.24839844 2.39257812 0.63351562 2.19921875 0 2 C0 1.34 0 0.68 0 0 Z " fill="#5E82A3" transform="translate(471,96)"/>
<path d="M0 0 C1.32 0.66 2.64 1.32 4 2 C-0.95 4.31 -5.9 6.62 -11 9 C-11 8.01 -11 7.02 -11 6 C-8 4 -8 4 -4.375 3 C-3.26125 2.67 -2.1475 2.34 -1 2 C-0.67 1.34 -0.34 0.68 0 0 Z " fill="#CCDBE8" transform="translate(316,456)"/>
<path d="M0 0 C4.9430602 0.49430602 8.74976194 1.36890025 13 4 C13.33 4.99 13.66 5.98 14 7 C9.0276578 5.50829734 4.58154261 3.39542583 0 1 C0 0.67 0 0.34 0 0 Z " fill="#98BFDC" transform="translate(144,430)"/>
<path d="M0 0 C0.33 0 0.66 0 1 0 C1 4.95 1 9.9 1 15 C-1.31 14.67 -3.62 14.34 -6 14 C-5.34 13.34 -4.68 12.68 -4 12 C-2.68 12 -1.36 12 0 12 C-0.185625 11.319375 -0.37125 10.63875 -0.5625 9.9375 C-1.08523943 6.42767809 -0.61378577 3.47811937 0 0 Z " fill="#81B7E2" transform="translate(258,351)"/>
<path d="M0 0 C4.85963179 0.60745397 8.7405518 2.72758967 13 5 C13 5.33 13 5.66 13 6 C8.02693484 5.50269348 4.36200187 4.44697666 0 2 C0 1.34 0 0.68 0 0 Z " fill="#7CAAD5" transform="translate(141,308)"/>
<path d="M0 0 C0.66 0 1.32 0 2 0 C2 0.66 2 1.32 2 2 C3.98 1.67 5.96 1.34 8 1 C7.01 1.33 6.02 1.66 5 2 C5 2.66 5 3.32 5 4 C3.68 4 2.36 4 1 4 C0.67 4.66 0.34 5.32 0 6 C-2.5625 6.625 -2.5625 6.625 -5 7 C-4.67 6.01 -4.34 5.02 -4 4 C-3.01 4 -2.02 4 -1 4 C-0.67 2.68 -0.34 1.36 0 0 Z " fill="#185795" transform="translate(286,226)"/>
<path d="M0 0 C-0.33 0.66 -0.66 1.32 -1 2 C-1.99 2 -2.98 2 -4 2 C-4.33 2.99 -4.66 3.98 -5 5 C-7.97 5 -10.94 5 -14 5 C-11.75043698 2.75043698 -9.93676737 1.99489035 -7 0.8125 C-6.113125 0.44769531 -5.22625 0.08289062 -4.3125 -0.29296875 C-2 -1 -2 -1 0 0 Z " fill="#4E76A1" transform="translate(158,47)"/>
<path d="M0 0 C4.38889325 0.66498383 7.9811485 2.18757677 12 4 C12 4.99 12 5.98 12 7 C7.76570244 5.68938409 3.92592596 4.05643741 0 2 C0 1.34 0 0.68 0 0 Z " fill="#9AC2DC" transform="translate(41,379)"/>
<path d="M0 0 C0.99 0.33 1.98 0.66 3 1 C2.34 1 1.68 1 1 1 C1.33 1.99 1.66 2.98 2 4 C0.71349294 4.69710731 -0.57940665 5.38242876 -1.875 6.0625 C-2.95394531 6.63677734 -2.95394531 6.63677734 -4.0546875 7.22265625 C-4.69664062 7.47917969 -5.33859375 7.73570312 -6 8 C-6.66 7.67 -7.32 7.34 -8 7 C-5.6875 4.5 -5.6875 4.5 -3 2 C-2.01 2 -1.02 2 0 2 C0 1.34 0 0.68 0 0 Z " fill="#C1D7EC" transform="translate(359,315)"/>
<path d="M0 0 C0.99 0.33 1.98 0.66 3 1 C2.34 1 1.68 1 1 1 C0.9175 1.61875 0.835 2.2375 0.75 2.875 C0 5 0 5 -1.75 6.25 C-4.28737029 7.0957901 -6.34234296 7.14764761 -9 7 C-7.68 6.34 -6.36 5.68 -5 5 C-5 4.01 -5 3.02 -5 2 C-3.35 2 -1.7 2 0 2 C0 1.34 0 0.68 0 0 Z " fill="#BBD1E6" transform="translate(437,277)"/>
<path d="M0 0 C4.95 0 9.9 0 15 0 C15 0.33 15 0.66 15 1 C11.04 1.99 7.08 2.98 3 4 C3 3.34 3 2.68 3 2 C1.68 2.33 0.36 2.66 -1 3 C-0.67 2.01 -0.34 1.02 0 0 Z " fill="#517EAA" transform="translate(74,267)"/>
<path d="M0 0 C0 0.66 0 1.32 0 2 C-0.66 2 -1.32 2 -2 2 C-2 2.66 -2 3.32 -2 4 C-5.63423209 6.32590854 -8.77088331 6.16265833 -13 6 C-10.87838666 3.87838666 -9.2266841 3.07013751 -6.5 1.875 C-5.7059375 1.52179687 -4.911875 1.16859375 -4.09375 0.8046875 C-2 0 -2 0 0 0 Z " fill="#618CB3" transform="translate(223,16)"/>
<path d="M0 0 C3.66666667 3.66666667 7.33333333 7.33333333 11 11 C7.50335208 10.35247261 4.92867039 9.00382711 2 7 C0 4 0 4 0 0 Z " fill="#7DAAD5" transform="translate(1,353)"/>
<path d="M0 0 C-0.125 1.875 -0.125 1.875 -1 4 C-4.0625 5.25 -4.0625 5.25 -7 6 C-7.33 4.68 -7.66 3.36 -8 2 C-4.91190305 0.23537317 -3.76687864 0 0 0 Z " fill="#B7D6ED" transform="translate(394,321)"/>
<path d="M0 0 C2.47717167 3.71575751 2.30345742 5.59986738 2 10 C1 12.9375 1 12.9375 0 15 C-0.99 14.67 -1.98 14.34 -3 14 C-2.68289062 13.44828125 -2.36578125 12.8965625 -2.0390625 12.328125 C-0.87290025 9.71522011 -0.59954289 7.59420998 -0.375 4.75 C-0.30023438 3.85796875 -0.22546875 2.9659375 -0.1484375 2.046875 C-0.09945312 1.37140625 -0.05046875 0.6959375 0 0 Z " fill="#567594" transform="translate(115,280)"/>
<path d="M0 0 C4.56454251 0.54339792 7.9728176 1.79463821 12 4 C11.67 4.99 11.34 5.98 11 7 C9.35063087 6.21572648 7.70558873 5.42234741 6.0625 4.625 C5.14597656 4.18414062 4.22945312 3.74328125 3.28515625 3.2890625 C1 2 1 2 0 0 Z " fill="#7AAAD1" transform="translate(155,216)"/>
<path d="M0 0 C0.58394531 0.36480469 1.16789062 0.72960937 1.76953125 1.10546875 C0.14703184 1.94366033 -1.47855372 2.77588035 -3.10546875 3.60546875 C-4.46285156 4.3015625 -4.46285156 4.3015625 -5.84765625 5.01171875 C-8.23046875 6.10546875 -8.23046875 6.10546875 -10.23046875 6.10546875 C-9.13457267 2.8177805 -8.75319566 2.46253492 -5.91796875 0.79296875 C-5.32371094 0.42558594 -4.72945313 0.05820312 -4.1171875 -0.3203125 C-2.23046875 -0.89453125 -2.23046875 -0.89453125 0 0 Z " fill="#C7DAE9" transform="translate(486.23046875,374.89453125)"/>
<path d="M0 0 C0.66 0 1.32 0 2 0 C2 0.99 2 1.98 2 3 C2.66 3 3.32 3 4 3 C4 3.99 4 4.98 4 6 C5.32 5.67 6.64 5.34 8 5 C8.33 5.99 8.66 6.98 9 8 C5.68847126 8.36794764 4.39390748 8.29809215 1.6875 6.25 C0 4 0 4 0 0 Z " fill="#17548E" transform="translate(56,267)"/>
<path d="M0 0 C-1.45264038 0.8638129 -2.9123163 1.71580454 -4.375 2.5625 C-5.59316406 3.27599609 -5.59316406 3.27599609 -6.8359375 4.00390625 C-7.55007813 4.33261719 -8.26421875 4.66132813 -9 5 C-9.66 4.67 -10.32 4.34 -11 4 C-10.67 3.01 -10.34 2.02 -10 1 C-6.19730268 -0.6900877 -3.94727832 -1.19873962 0 0 Z " fill="#527AA3" transform="translate(379,188)"/>
<path d="M0 0 C4.23429756 1.31061591 8.07407404 2.94356259 12 5 C12 5.33 12 5.66 12 6 C6.28758534 5.61271765 3.26311718 5.12989477 -1 1 C-0.67 0.67 -0.34 0.34 0 0 Z " fill="#8ABDDA" transform="translate(30,154)"/>
<path d="M0 0 C-3.12488567 2.52394612 -6.31314387 4.39701907 -10 6 C-10.66 5.67 -11.32 5.34 -12 5 C-7.81374099 0.67419902 -6.05150555 -0.13155447 0 0 Z " fill="#CCDBEB" transform="translate(476,381)"/>
<path d="M0 0 C-1 3 -1 3 -3.06640625 4.16796875 C-3.89011719 4.50441406 -4.71382813 4.84085938 -5.5625 5.1875 C-6.38878906 5.53167969 -7.21507812 5.87585938 -8.06640625 6.23046875 C-9.02353516 6.61138672 -9.02353516 6.61138672 -10 7 C-10.66 6.34 -11.32 5.68 -12 5 C-10.37750059 4.16180842 -8.75191503 3.3295884 -7.125 2.5 C-6.22007812 2.0359375 -5.31515625 1.571875 -4.3828125 1.09375 C-2 0 -2 0 0 0 Z " fill="#C1D9E7" transform="translate(295,249)"/>
<path d="M0 0 C-0.99 0.495 -0.99 0.495 -2 1 C-2 1.66 -2 2.32 -2 3 C-5.67410785 4.17571451 -9.16929183 4.07366746 -13 4 C-8.30968888 0.87312592 -5.74301634 -0.2610462 0 0 Z " fill="#4D7CA7" transform="translate(214,22)"/>
<path d="M0 0 C0 0.66 0 1.32 0 2 C0.99 2 1.98 2 3 2 C3 2.66 3 3.32 3 4 C3.66 4.33 4.32 4.66 5 5 C2.50935112 5.68707555 0.62113708 6 -2 6 C-2 5.01 -2 4.02 -2 3 C-2.99 2.34 -3.98 1.68 -5 1 C-3 0 -3 0 0 0 Z " fill="#3571A7" transform="translate(257,1)"/>
<path d="M0 0 C6.93 2.97 6.93 2.97 14 6 C14 6.33 14 6.66 14 7 C8.29290936 6.53411505 4.84060277 5.06242216 0 2 C0 1.34 0 0.68 0 0 Z " fill="#95B9D9" transform="translate(209,241)"/>
<path d="M0 0 C0.66 0.99 1.32 1.98 2 3 C-2.1795645 5.78637633 -4.14668677 4.79562512 -9 4 C-6.06171403 1.49701566 -3.82097239 0.53069061 0 0 Z " fill="#BAD3E7" transform="translate(341,227)"/>
<path d="M0 0 C2.97 0.495 2.97 0.495 6 1 C6 1.99 6 2.98 6 4 C6.66 4 7.32 4 8 4 C8 4.66 8 5.32 8 6 C2.25 4.125 2.25 4.125 0 3 C0 2.01 0 1.02 0 0 Z " fill="#5885AA" transform="translate(39,136)"/>
<path d="M0 0 C-3.1254959 2.64465038 -6.08788267 3.84414715 -10 5 C-10.33 4.34 -10.66 3.68 -11 3 C-10.34 3 -9.68 3 -9 3 C-9 2.34 -9 1.68 -9 1 C-5.8035914 -0.06546953 -3.34252724 -0.07427838 0 0 Z " fill="#326594" transform="translate(338,207)"/>
<path d="M0 0 C-0.98041419 2.45103548 -1.6513818 3.76758786 -3.875 5.25 C-6 6 -6 6 -10 6 C-10 5.34 -10 4.68 -10 4 C-8.71086513 3.32845067 -7.41859796 2.66291141 -6.125 2 C-5.40570313 1.62875 -4.68640625 1.2575 -3.9453125 0.875 C-2 0 -2 0 0 0 Z " fill="#B1CADD" transform="translate(512,361)"/>
<path d="M0 0 C8.57142857 0.71428571 8.57142857 0.71428571 12 4 C9.6875 4.625 9.6875 4.625 7 5 C6.01 4.34 5.02 3.68 4 3 C4 2.34 4 1.68 4 1 C2.68 0.67 1.36 0.34 0 0 Z " fill="#547DA1" transform="translate(257,0)"/>
<path d="M0 0 C-3.1254959 2.64465038 -6.08788267 3.84414715 -10 5 C-10 4.01 -10 3.02 -10 2 C-6.5980513 -0.09350689 -3.94727588 -0.17942163 0 0 Z " fill="#CADCEC" transform="translate(402,417)"/>
<path d="M0 0 C3.3125 -0.3125 3.3125 -0.3125 7 0 C8.9375 2.5 8.9375 2.5 10 5 C6.08788267 3.84414715 3.1254959 2.64465038 0 0 Z " fill="#96C7E5" transform="translate(169,323)"/>
<path d="M0 0 C0.99 0 1.98 0 3 0 C3 0.66 3 1.32 3 2 C4.423125 2.433125 4.423125 2.433125 5.875 2.875 C9 4 9 4 11 6 C8.55492066 6.87324262 7.32299678 7.10151327 4.8125 6.3125 C2.56204136 4.68285754 2.51355254 3.6533548 2 1 C1.34 0.67 0.68 0.34 0 0 Z " fill="#6EB1E6" transform="translate(135,207)"/>
<path d="M0 0 C-1 3 -1 3 -3.375 4.3125 C-4.24125 4.539375 -5.1075 4.76625 -6 5 C-6.99 4.34 -7.98 3.68 -9 3 C-2.25 0 -2.25 0 0 0 Z M-8 5 C-6 6 -6 6 -6 6 Z " fill="#C4DAEB" transform="translate(404,196)"/>
<path d="M0 0 C3.87132028 0.57352893 6.08172796 2.48704352 9 5 C8.67 5.66 8.34 6.32 8 7 C5.525 6.01 5.525 6.01 3 5 C3 4.34 3 3.68 3 3 C2.34 3 1.68 3 1 3 C0.67 2.01 0.34 1.02 0 0 Z " fill="#7B9CBE" transform="translate(492,105)"/>
<path d="M0 0 C-0.495 0.474375 -0.99 0.94875 -1.5 1.4375 C-3.11542197 2.75923698 -3.11542197 2.75923698 -3 4 C-5.64 4 -8.28 4 -11 4 C-4.14893617 -1.38297872 -4.14893617 -1.38297872 0 0 Z " fill="#7195B6" transform="translate(111,68)"/>
<path d="M0 0 C2.75 -0.25 2.75 -0.25 6 0 C8.375 2 8.375 2 10 4 C9.01 4.495 9.01 4.495 8 5 C6.0546875 4.22265625 6.0546875 4.22265625 3.875 3.0625 C3.15054688 2.68222656 2.42609375 2.30195313 1.6796875 1.91015625 C1.12539062 1.60980469 0.57109375 1.30945313 0 1 C0 0.67 0 0.34 0 0 Z " fill="#A1C9E2" transform="translate(127,422)"/>
<path d="M0 0 C3.91211733 1.15585285 6.8745041 2.35534962 10 5 C9.01 5.33 8.02 5.66 7 6 C7 5.34 7 4.68 7 4 C4.69 3.67 2.38 3.34 0 3 C0 2.01 0 1.02 0 0 Z " fill="#93BEE2" transform="translate(99,307)"/>
<path d="M0 0 C3.55780196 0.60990891 6.6828589 1.5783681 10 3 C9.67 3.66 9.34 4.32 9 5 C5.65626525 4.44271087 2.96687001 3.64826111 0 2 C0 1.34 0 0.68 0 0 Z " fill="#8BB9D8" transform="translate(33,256)"/>
<path d="M0 0 C0.99 0.33 1.98 0.66 3 1 C3 1.66 3 2.32 3 3 C-2.17578125 6.22265625 -2.17578125 6.22265625 -4 7 C-4.99 6.67 -5.98 6.34 -7 6 C-6.401875 5.7525 -5.80375 5.505 -5.1875 5.25 C-2.71352479 3.83629988 -1.56629745 2.34944617 0 0 Z " fill="#577FA8" transform="translate(325,210)"/>
<path d="M0 0 C-1.63412443 1.70840281 -2.86906094 2.93453047 -5 4 C-6.99960012 4.039992 -9.00047242 4.04346799 -11 4 C-7.26280719 0.48264206 -5.13496308 -0.47767098 0 0 Z " fill="#4D75A4" transform="translate(498,129)"/>
<path d="M0 0 C2.31 0.33 4.62 0.66 7 1 C7.33 2.32 7.66 3.64 8 5 C7.01 5.33 6.02 5.66 5 6 C3 5 3 5 2 2 C1.34 1.34 0.68 0.68 0 0 Z " fill="#16538E" transform="translate(360,47)"/>
<path d="M0 0 C-0.66 0 -1.32 0 -2 0 C-2 0.66 -2 1.32 -2 2 C-4.35438733 3.42944945 -5.48032433 4.08661261 -8.25 3.625 C-8.8275 3.41875 -9.405 3.2125 -10 3 C-3.375 -1.125 -3.375 -1.125 0 0 Z " fill="#B1C8DE" transform="translate(500,369)"/>
<path d="M0 0 C0 0.99 0 1.98 0 3 C-1.75 4.125 -1.75 4.125 -4 5 C-6.25 4.125 -6.25 4.125 -8 3 C-2.25 0 -2.25 0 0 0 Z M-6 5 C-4 6 -4 6 -4 6 Z " fill="#C2D9EC" transform="translate(320,356)"/>
<path d="M0 0 C5.75 1.75 5.75 1.75 8 4 C7.34 4.66 6.68 5.32 6 6 C2.535 4.02 2.535 4.02 -1 2 C-0.67 1.34 -0.34 0.68 0 0 Z " fill="#4577A4" transform="translate(413,69)"/>
<path d="M0 0 C5.94 2.475 5.94 2.475 12 5 C8.06329512 6.31223496 5.87511856 5.24296256 2 4 C2 3.34 2 2.68 2 2 C1.34 2 0.68 2 0 2 C0 1.34 0 0.68 0 0 Z " fill="#557CA3" transform="translate(354,42)"/>
<path d="M0 0 C1 3 1 3 1 6 C-0.32 6 -1.64 6 -3 6 C-3.33 4.68 -3.66 3.36 -4 2 C-2.68 1.34 -1.36 0.68 0 0 Z " fill="#1A568F" transform="translate(191,31)"/>
<path d="M0 0 C-1.28650706 0.69710731 -2.57940665 1.38242876 -3.875 2.0625 C-4.95394531 2.63677734 -4.95394531 2.63677734 -6.0546875 3.22265625 C-6.69664062 3.47917969 -7.33859375 3.73570312 -8 4 C-8.66 3.67 -9.32 3.34 -10 3 C-10 2.34 -10 1.68 -10 1 C-3.375 -1.125 -3.375 -1.125 0 0 Z " fill="#CCDDED" transform="translate(412,413)"/>
<path d="M0 0 C0.99 0.33 1.98 0.66 3 1 C1.63016497 4.16115776 1.0109362 4.9927092 -2 7 C-2 5 -2 3 -2 1 C-1.34 0.67 -0.68 0.34 0 0 Z " fill="#BBD8F4" transform="translate(376,328)"/>
<path d="M0 0 C3.91211733 1.15585285 6.8745041 2.35534962 10 5 C3.49955237 4.38675022 3.49955237 4.38675022 1.0625 2.5 C0 1 0 1 0 0 Z " fill="#97C0E0" transform="translate(9,263)"/>
<path d="M0 0 C2.4164124 0.48328248 4.65832183 1.21944061 7 2 C7 2.99 7 3.98 7 5 C1.25 3.25 1.25 3.25 -1 1 C-0.67 0.67 -0.34 0.34 0 0 Z " fill="#4C739F" transform="translate(202,216)"/>
<path d="M0 0 C0 0.66 0 1.32 0 2 C-0.928125 2.185625 -0.928125 2.185625 -1.875 2.375 C-4.19120832 2.87197356 -4.19120832 2.87197356 -6 5 C-8.125 4.625 -8.125 4.625 -10 4 C-4.5 0 -4.5 0 0 0 Z " fill="#1A5487" transform="translate(52,95)"/>
<path d="M0 0 C6.52307692 0.61538462 6.52307692 0.61538462 8.9375 2.5625 C9.288125 3.036875 9.63875 3.51125 10 4 C9.01 4.495 9.01 4.495 8 5 C6.0546875 4.22265625 6.0546875 4.22265625 3.875 3.0625 C3.15054688 2.68222656 2.42609375 2.30195313 1.6796875 1.91015625 C1.12539062 1.60980469 0.57109375 1.30945313 0 1 C0 0.67 0 0.34 0 0 Z " fill="#9DC7E4" transform="translate(236,475)"/>
<path d="M0 0 C-0.66 0 -1.32 0 -2 0 C-2.33 0.99 -2.66 1.98 -3 3 C-5.31 3.33 -7.62 3.66 -10 4 C-6.87839899 0.56623888 -4.64008112 -1.54669371 0 0 Z " fill="#B2CEE3" transform="translate(417,409)"/>
<path d="M0 0 C-0.33 1.98 -0.66 3.96 -1 6 C-2.32 5.67 -3.64 5.34 -5 5 C-5 4.01 -5 3.02 -5 2 C-2 0 -2 0 0 0 Z " fill="#4372A4" transform="translate(230,225)"/>
<path d="M0 0 C4.55737263 0.43820891 7.57653445 0.85041169 11 4 C10.01 4.33 9.02 4.66 8 5 C8 4.34 8 3.68 8 3 C7.05125 2.87625 6.1025 2.7525 5.125 2.625 C2 2 2 2 0 0 Z " fill="#8DB7DC" transform="translate(146,212)"/>
<path d="M0 0 C3.91211733 1.15585285 6.8745041 2.35534962 10 5 C7.69 4.67 5.38 4.34 3 4 C3 3.34 3 2.68 3 2 C2.01 2.33 1.02 2.66 0 3 C0 2.01 0 1.02 0 0 Z " fill="#D1E3F1" transform="translate(436,198)"/>
<path d="M0 0 C2.64 0.33 5.28 0.66 8 1 C7.67 1.99 7.34 2.98 7 4 C5.35 3.67 3.7 3.34 2 3 C2 2.34 2 1.68 2 1 C1.34 0.67 0.68 0.34 0 0 Z " fill="#215787" transform="translate(45,139)"/>
<path d="M0 0 C2.97 0.99 5.94 1.98 9 3 C7.02 3.99 7.02 3.99 5 5 C5 4.34 5 3.68 5 3 C3.35 3 1.7 3 0 3 C0 2.01 0 1.02 0 0 Z " fill="#537AA8" transform="translate(421,73)"/>
<path d="M0 0 C0.598125 0.350625 1.19625 0.70125 1.8125 1.0625 C-0.15216413 2.13025224 -2.15605359 3.12803465 -4.1875 4.0625 C-4.8475 3.7325 -5.5075 3.4025 -6.1875 3.0625 C-5.8575 2.0725 -5.5275 1.0825 -5.1875 0.0625 C-2.1875 -0.9375 -2.1875 -0.9375 0 0 Z " fill="#C2DAEC" transform="translate(291.1875,469.9375)"/>
<path d="M0 0 C2.4375 1.25 2.4375 1.25 3.4375 4.25 C-2.3125 2.5 -2.3125 2.5 -4.5625 0.25 C-2.5625 -0.75 -2.5625 -0.75 0 0 Z " fill="#A1C6E1" transform="translate(217.5625,463.75)"/>
<path d="M0 0 C0 0.99 0 1.98 0 3 C-5.75 1.25 -5.75 1.25 -8 -1 C-4.37673261 -2.2077558 -3.35853631 -1.54311128 0 0 Z " fill="#92C6E3" transform="translate(209,459)"/>
<path d="M0 0 C2.31 0.33 4.62 0.66 7 1 C7.33 1.99 7.66 2.98 8 4 C5.07120629 3.37240135 2.63904371 2.41377341 0 1 C0 0.67 0 0.34 0 0 Z " fill="#B7CEE1" transform="translate(454,328)"/>
<path d="M0 0 C2.97 0.99 5.94 1.98 9 3 C9 3.33 9 3.66 9 4 C6.36 3.67 3.72 3.34 1 3 C0.67 2.01 0.34 1.02 0 0 Z " fill="#91BADA" transform="translate(0,259)"/>
<path d="M0 0 C4.455 1.98 4.455 1.98 9 4 C9 4.33 9 4.66 9 5 C5.37471432 5.20140476 3.13498292 4.85776765 0 3 C0 2.01 0 1.02 0 0 Z " fill="#C7DAEA" transform="translate(485,222)"/>
<path d="M0 0 C3.26954202 0.56371414 4.82575883 1.49962266 7 4 C4.36 3.67 1.72 3.34 -1 3 C-0.67 2.01 -0.34 1.02 0 0 Z " fill="#1B548D" transform="translate(210,218)"/>
<path d="M0 0 C5.75 -0.125 5.75 -0.125 8 1 C8 1.99 8 2.98 8 4 C2.25 2.25 2.25 2.25 0 0 Z " fill="#688FBC" transform="translate(131,183)"/>
<path d="M0 0 C2.31 0 4.62 0 7 0 C7.33 1.32 7.66 2.64 8 4 C2.25 2.25 2.25 2.25 0 0 Z " fill="#7496BC" transform="translate(16,127)"/>
<path d="M0 0 C0.66 0.66 1.32 1.32 2 2 C1.67 2.99 1.34 3.98 1 5 C0.21625 4.79375 -0.5675 4.5875 -1.375 4.375 C-2.674375 4.189375 -2.674375 4.189375 -4 4 C-4.66 4.66 -5.32 5.32 -6 6 C-6.66 5.34 -7.32 4.68 -8 4 C-4.77208445 1.8480563 -3.71599191 1.79913557 0 2 C0 1.34 0 0.68 0 0 Z " fill="#165490" transform="translate(81,81)"/>
<path d="M0 0 C0.66 0.33 1.32 0.66 2 1 C0.875 2.5 0.875 2.5 -1 4 C-4.1875 4.1875 -4.1875 4.1875 -7 4 C-4.61426621 2.10786631 -2.92824652 0.97608217 0 0 Z " fill="#6D92B1" transform="translate(142,52)"/>
<path d="M0 0 C4.75 1.875 4.75 1.875 7 3 C7 3.66 7 4.32 7 5 C4.69 4.34 2.38 3.68 0 3 C0 2.01 0 1.02 0 0 Z " fill="#85B3D1" transform="translate(53,384)"/>
<path d="M0 0 C2.31 0.33 4.62 0.66 7 1 C7 1.66 7 2.32 7 3 C5.1875 3.6875 5.1875 3.6875 3 4 C1.25 2.625 1.25 2.625 0 1 C0 0.67 0 0.34 0 0 Z " fill="#7EB6DD" transform="translate(36,376)"/>
<path d="M0 0 C3.82097239 0.53069061 6.06171403 1.49701566 9 4 C3.375 4.25 3.375 4.25 0 2 C0 1.34 0 0.68 0 0 Z " fill="#9FC5E2" transform="translate(123,319)"/>
<path d="M0 0 C1.32 1.65 2.64 3.3 4 5 C3.34 6.32 2.68 7.64 2 9 C-1.07692308 4.56923077 -1.07692308 4.56923077 -0.6875 1.6875 C-0.460625 1.130625 -0.23375 0.57375 0 0 Z " fill="#658DAD" transform="translate(97,278)"/>
<path d="M0 0 C0 0.66 0 1.32 0 2 C-2.35438733 3.42944945 -3.48032433 4.08661261 -6.25 3.625 C-6.8275 3.41875 -7.405 3.2125 -8 3 C-5.48696401 0.48696401 -3.51117809 0 0 0 Z " fill="#25507F" transform="translate(266,241)"/>
<path d="M0 0 C1.65 0 3.3 0 5 0 C5 0.66 5 1.32 5 2 C3.02 2.66 1.04 3.32 -1 4 C-0.67 2.68 -0.34 1.36 0 0 Z " fill="#6187AC" transform="translate(275,235)"/>
<path d="M0 0 C1.258125 0.12375 2.51625 0.2475 3.8125 0.375 C4.87404297 0.47941406 4.87404297 0.47941406 5.95703125 0.5859375 C8 1 8 1 11 3 C8.83032311 3.95465783 7.43671207 4.14401212 5.17578125 3.3984375 C3.4315257 2.64129615 1.71372869 1.82390802 0 1 C0 0.67 0 0.34 0 0 Z " fill="#597FA8" transform="translate(229,231)"/>
<path d="M0 0 C2.31 0.33 4.62 0.66 7 1 C5 3 5 3 2.375 3.125 C1.59125 3.08375 0.8075 3.0425 0 3 C0 2.01 0 1.02 0 0 Z " fill="#B5D3EA" transform="translate(491,227)"/>
<path d="M0 0 C2.475 0.495 2.475 0.495 5 1 C5 1.66 5 2.32 5 3 C6.32 3.66 7.64 4.32 9 5 C5.65626525 4.44271087 2.96687001 3.64826111 0 2 C0 1.34 0 0.68 0 0 Z " fill="#72A7D2" transform="translate(170,223)"/>
</svg>
